<?xml version="1.0" encoding="UTF-8" standalone="no"?>
<svg
   xmlns:dc="http://purl.org/dc/elements/1.1/"
   xmlns:cc="http://creativecommons.org/ns#"
   xmlns:rdf="http://www.w3.org/1999/02/22-rdf-syntax-ns#"
   xmlns:svg="http://www.w3.org/2000/svg"
   xmlns="http://www.w3.org/2000/svg"
   xmlns:sodipodi="http://sodipodi.sourceforge.net/DTD/sodipodi-0.dtd"
   xmlns:inkscape="http://www.inkscape.org/namespaces/inkscape"
   width="123.38057mm"
   height="131.55724mm"
   viewBox="0 0 123.38057 131.55724"
   version="1.1"
   id="svg8"
   sodipodi:docname="face11.svg"
   inkscape:version="1.0.2 (e86c870879, 2021-01-15, custom)">
  <defs
     id="defs2">
    <inkscape:path-effect
       effect="powerstroke"
       id="path-effect317"
       is_visible="true"
       offset_points="0,0.13229166"
       sort_points="true"
       interpolator_type="CubicBezierJohan"
       interpolator_beta="0.2"
       start_linecap_type="zerowidth"
       linejoin_type="extrp_arc"
       miter_limit="4"
       end_linecap_type="zerowidth" />
    <inkscape:path-effect
       effect="powerstroke"
       id="path-effect315"
       is_visible="true"
       offset_points="0,0.13229166"
       sort_points="true"
       interpolator_type="CubicBezierJohan"
       interpolator_beta="0.2"
       start_linecap_type="zerowidth"
       linejoin_type="extrp_arc"
       miter_limit="4"
       end_linecap_type="zerowidth" />
    <inkscape:path-effect
       effect="powerstroke"
       id="path-effect313"
       is_visible="true"
       offset_points="1,0.13229166"
       sort_points="true"
       interpolator_type="CubicBezierJohan"
       interpolator_beta="0.2"
       start_linecap_type="zerowidth"
       linejoin_type="extrp_arc"
       miter_limit="4"
       end_linecap_type="zerowidth" />
    <inkscape:path-effect
       effect="powerstroke"
       id="path-effect311"
       is_visible="true"
       offset_points="1,0.13229166"
       sort_points="true"
       interpolator_type="CubicBezierJohan"
       interpolator_beta="0.2"
       start_linecap_type="zerowidth"
       linejoin_type="extrp_arc"
       miter_limit="4"
       end_linecap_type="zerowidth" />
    <inkscape:path-effect
       effect="powerstroke"
       id="path-effect256"
       is_visible="true"
       offset_points="1,0.13229166"
       sort_points="true"
       interpolator_type="CubicBezierJohan"
       interpolator_beta="0.2"
       start_linecap_type="zerowidth"
       linejoin_type="extrp_arc"
       miter_limit="4"
       end_linecap_type="zerowidth" />
    <inkscape:path-effect
       effect="powerstroke"
       id="path-effect195"
       is_visible="true"
       offset_points="1,0.13229166"
       sort_points="true"
       interpolator_type="CubicBezierJohan"
       interpolator_beta="0.2"
       start_linecap_type="zerowidth"
       linejoin_type="extrp_arc"
       miter_limit="4"
       end_linecap_type="zerowidth" />
    <inkscape:path-effect
       effect="powerstroke"
       id="path-effect3938"
       is_visible="true"
       offset_points="0,0.13229166"
       sort_points="true"
       interpolator_type="CubicBezierJohan"
       interpolator_beta="0.2"
       start_linecap_type="zerowidth"
       linejoin_type="extrp_arc"
       miter_limit="4"
       end_linecap_type="zerowidth" />
    <inkscape:path-effect
       effect="powerstroke"
       id="path-effect3934"
       is_visible="true"
       offset_points="0,0.13229166"
       sort_points="true"
       interpolator_type="CubicBezierJohan"
       interpolator_beta="0.2"
       start_linecap_type="zerowidth"
       linejoin_type="extrp_arc"
       miter_limit="4"
       end_linecap_type="zerowidth" />
    <inkscape:path-effect
       effect="powerstroke"
       id="path-effect3930"
       is_visible="true"
       offset_points="0,0.13229166"
       sort_points="true"
       interpolator_type="CubicBezierJohan"
       interpolator_beta="0.2"
       start_linecap_type="zerowidth"
       linejoin_type="extrp_arc"
       miter_limit="4"
       end_linecap_type="zerowidth" />
    <inkscape:path-effect
       effect="powerstroke"
       id="path-effect3926"
       is_visible="true"
       offset_points="0,0.13229166"
       sort_points="true"
       interpolator_type="CubicBezierJohan"
       interpolator_beta="0.2"
       start_linecap_type="zerowidth"
       linejoin_type="extrp_arc"
       miter_limit="4"
       end_linecap_type="zerowidth" />
    <inkscape:path-effect
       effect="powerstroke"
       id="path-effect3922"
       is_visible="true"
       offset_points="0,0.13229166"
       sort_points="true"
       interpolator_type="CubicBezierJohan"
       interpolator_beta="0.2"
       start_linecap_type="zerowidth"
       linejoin_type="extrp_arc"
       miter_limit="4"
       end_linecap_type="zerowidth" />
    <inkscape:path-effect
       effect="powerstroke"
       id="path-effect3908"
       is_visible="true"
       offset_points="1,0.13229166"
       sort_points="true"
       interpolator_type="CubicBezierJohan"
       interpolator_beta="0.2"
       start_linecap_type="zerowidth"
       linejoin_type="extrp_arc"
       miter_limit="4"
       end_linecap_type="zerowidth" />
    <inkscape:path-effect
       effect="powerstroke"
       id="path-effect3904"
       is_visible="true"
       offset_points="1,0.13229166"
       sort_points="true"
       interpolator_type="CubicBezierJohan"
       interpolator_beta="0.2"
       start_linecap_type="zerowidth"
       linejoin_type="extrp_arc"
       miter_limit="4"
       end_linecap_type="zerowidth" />
    <inkscape:path-effect
       effect="powerstroke"
       id="path-effect3829"
       is_visible="true"
       offset_points="2,0.13229166"
       sort_points="true"
       interpolator_type="CubicBezierJohan"
       interpolator_beta="0.2"
       start_linecap_type="zerowidth"
       linejoin_type="extrp_arc"
       miter_limit="4"
       end_linecap_type="zerowidth" />
    <inkscape:path-effect
       effect="powerstroke"
       id="path-effect3814"
       is_visible="true"
       offset_points="0,0.13229166"
       sort_points="true"
       interpolator_type="CubicBezierJohan"
       interpolator_beta="0.2"
       start_linecap_type="zerowidth"
       linejoin_type="extrp_arc"
       miter_limit="4"
       end_linecap_type="zerowidth" />
    <inkscape:path-effect
       effect="powerstroke"
       id="path-effect3810"
       is_visible="true"
       offset_points="0,0.13229166"
       sort_points="true"
       interpolator_type="CubicBezierJohan"
       interpolator_beta="0.2"
       start_linecap_type="zerowidth"
       linejoin_type="extrp_arc"
       miter_limit="4"
       end_linecap_type="zerowidth" />
    <inkscape:path-effect
       effect="powerstroke"
       id="path-effect3806"
       is_visible="true"
       offset_points="0,0.13229166"
       sort_points="true"
       interpolator_type="CubicBezierJohan"
       interpolator_beta="0.2"
       start_linecap_type="zerowidth"
       linejoin_type="extrp_arc"
       miter_limit="4"
       end_linecap_type="zerowidth" />
    <inkscape:path-effect
       effect="powerstroke"
       id="path-effect3790"
       is_visible="true"
       offset_points="1,0.13229166"
       sort_points="true"
       interpolator_type="CubicBezierJohan"
       interpolator_beta="0.2"
       start_linecap_type="zerowidth"
       linejoin_type="extrp_arc"
       miter_limit="4"
       end_linecap_type="zerowidth" />
    <inkscape:path-effect
       effect="powerstroke"
       id="path-effect3786"
       is_visible="true"
       offset_points="1,0.13229166"
       sort_points="true"
       interpolator_type="CubicBezierJohan"
       interpolator_beta="0.2"
       start_linecap_type="zerowidth"
       linejoin_type="extrp_arc"
       miter_limit="4"
       end_linecap_type="zerowidth" />
  </defs>
  <sodipodi:namedview
     id="base"
     pagecolor="#ffffff"
     bordercolor="#666666"
     borderopacity="1.0"
     inkscape:pageopacity="0.0"
     inkscape:pageshadow="2"
     inkscape:zoom="1.4"
     inkscape:cx="127.01752"
     inkscape:cy="308.29907"
     inkscape:document-units="mm"
     inkscape:current-layer="layer7"
     showgrid="false"
     inkscape:window-width="1920"
     inkscape:window-height="1002"
     inkscape:window-x="-8"
     inkscape:window-y="-8"
     inkscape:window-maximized="1"
     inkscape:document-rotation="0" />
  <metadata
     id="metadata5">
    <rdf:RDF>
      <cc:Work
         rdf:about="">
        <dc:format>image/svg+xml</dc:format>
        <dc:type
           rdf:resource="http://purl.org/dc/dcmitype/StillImage" />
        <dc:title></dc:title>
      </cc:Work>
    </rdf:RDF>
  </metadata>
  <g
     inkscape:groupmode="layer"
     id="layer5"
     inkscape:label="COUP"
     style="display:none"
     transform="translate(-90.975558,-49.850157)"
     sodipodi:insensitive="true">
    <path
       style="fill:#000000;stroke:#000000;stroke-width:0.264583px;stroke-linecap:butt;stroke-linejoin:miter;stroke-opacity:1"
       d="m 119.62946,136.01116 c 0,0 -9.92187,9.16593 -23.529014,11.33929 -13.607145,2.17336 4.913684,22.67857 4.913684,22.67857 l 18.61533,9.63839 45.26265,1.6064 c 0,0 54.99554,-32.69494 48.85342,-34.77381 -6.14211,-2.07887 -29.38764,-9.82738 -29.38764,-9.82738 l -5.29167,-1.13393"
       id="path5031"
       inkscape:connector-curvature="0" />
    <path
       style="display:inline;fill:#ffffff;stroke:#000000;stroke-width:0.264583px;stroke-linecap:butt;stroke-linejoin:miter;stroke-opacity:1"
       d="m 118.37447,130.52628 c -0.0176,0.3731 2.99336,16.29187 2.99336,16.29187 0,0 -0.97484,7.93536 2.69071,12.55325 3.66555,4.61787 7.90198,9.88187 9.2441,10.60317 1.34212,0.7213 5.34594,2.98287 7.03116,3.40621 1.68521,0.42334 7.48701,2.17426 8.39101,1.9715 0.90399,-0.20274 8.28638,-3.81294 9.55352,-4.54903 1.26713,-0.73608 9.22816,-6.40708 10.10466,-7.23335 0.87652,-0.82627 7.91366,-7.84207 9.25358,-10.37858 1.33993,-2.53651 6.46434,-13.59408 6.72741,-15.17914 0.26307,-1.58506 -8.5211,-3.33876 -11.32559,-4.26051 -2.80449,-0.92177 -8.23572,-2.34711 -8.83167,-2.58756 -0.3354,-1.51751 -1.06617,-6.07502 -0.32228,-7.96052 -1.663,3.04481 -4.10333,9.43654 -9.37656,13.43605 -5.27324,3.99951 -12.57607,10.84772 -23.82261,3.69321 -11.24654,-7.15451 -12.08911,-10.01597 -12.31218,-10.30992 -0.22308,-0.29394 10e-4,0.50334 10e-4,0.50334 z"
       id="path3755"
       inkscape:connector-curvature="0" />
  </g>
  <g
     inkscape:groupmode="layer"
     id="layer15"
     inkscape:label="BARBE COU"
     style="display:none"
     transform="translate(-90.975558,-49.850157)"
     sodipodi:insensitive="true">
    <path
       style="display:inline;fill:#b3b3b3;stroke:none;stroke-width:0.264583px;stroke-linecap:butt;stroke-linejoin:miter;stroke-opacity:1"
       d="m 118.37447,130.52628 c 0,0 8.5817,10.83675 9.28257,14.10191 0.70087,3.26516 2.22299,10.11421 7.54193,11.43916 5.31892,1.32495 12.50079,0.46154 14.74622,-2.12341 2.24544,-2.58495 6.46021,-9.07932 6.4251,-12.28776 -0.0351,-3.20843 4.04115,-15.77875 7.51415,-18.45259 -4.60188,4.578 -16.08279,34.74278 -45.50997,7.32269 z"
       id="path3945"
       inkscape:connector-curvature="0" />
  </g>
  <g
     inkscape:groupmode="layer"
     id="layer3"
     inkscape:label="CONTOUR TETE 1"
     style="display:none"
     transform="translate(-90.975558,-49.850157)"
     sodipodi:insensitive="true">
    <path
       style="display:inline;fill:#ffffff;stroke:#000000;stroke-width:0.264583px;stroke-linecap:butt;stroke-linejoin:miter;stroke-opacity:1"
       d="m 108.3667,92.488252 c 0,0 -1.20592,-11.113244 -0.29146,-16.11383 0.91447,-5.000575 1.88411,-10.982745 5.50287,-14.776095 3.61876,-3.79336 9.89682,-7.075629 14.64977,-9.098484 4.75294,-2.022856 11.6994,-3.299287 17.2909,-1.974099 5.59152,1.325182 9.05706,2.502443 13.79189,6.647146 4.73485,4.144708 9.02386,9.180832 9.26111,16.024524 0.23724,6.843693 0.21183,10.815175 -0.0938,12.287547 -0.30565,1.472374 -0.66658,5.263529 -0.5892,7.750095 0.0774,2.486567 0.19984,5.223547 0.002,6.823644 -0.19797,1.60008 -1.96902,8.52873 -2.16454,10.71228 -0.19552,2.18354 -0.023,5.00066 -0.62426,8.05057 -0.60128,3.04993 -1.7835,6.24002 -4.7237,10.36148 -2.94018,4.12144 -7.00982,9.42222 -10.51071,11.21983 -3.50088,1.7976 -9.31572,5.59826 -17.13557,1.15277 -7.81984,-4.44549 -9.40985,-5.42974 -12.99531,-9.65198 -3.58545,-4.22222 -6.00396,-8.89508 -6.9927,-12.92925 -0.98873,-4.03418 -3.16903,-12.11508 -3.40657,-15.83868 -0.23754,-3.7236 -1.2761,-10.512278 -0.97059,-10.647468 z"
       id="path3730-2"
       inkscape:connector-curvature="0" />
  </g>
  <g
     inkscape:groupmode="layer"
     id="layer16"
     inkscape:label="BARBE MACHOIR"
     style="display:none"
     transform="translate(-90.975558,-49.850157)"
     sodipodi:insensitive="true">
    <path
       style="display:inline;fill:#cccccc;stroke:none;stroke-width:0.264583px;stroke-linecap:butt;stroke-linejoin:miter;stroke-opacity:1"
       d="m 109.25344,100.42378 c 6.21733,12.97596 3.97917,13.42904 11.62833,14.32216 7.64916,0.89314 10.43998,-1.95381 13.19522,-2.96638 2.75524,-1.01255 4.96189,0.0337 6.36014,0.59555 1.77622,-0.33589 3.01074,-1.28131 4.78842,-0.57995 1.77767,0.70135 4.29186,0.53912 7.24992,1.8207 1.62172,2.21701 4.41302,2.06034 6.78289,2.06409 0,0 2.81859,-0.13457 4.6605,-4.75228 1.84192,-4.6177 3.62161,-9.76739 3.62161,-9.76739 0,0 -2.20574,17.54361 -2.43618,18.24473 -0.23043,0.70112 -2.34943,6.31509 -2.66499,6.79083 -0.31556,0.47575 -7.12255,9.91051 -7.41054,10.11833 -0.288,0.20781 -9.71928,9.72245 -18.25296,7.03226 -8.53367,-2.69019 -17.04924,-11.54795 -17.04924,-11.54795 0,0 -3.54543,-3.80154 -5.16018,-7.94595 -1.61474,-4.14442 -3.73746,-12.17773 -3.73746,-12.17773 0,0 -2.48241,-17.613984 -2.46222,-19.186548 0.0202,-1.572561 0.88674,7.935528 0.88674,7.935528 z"
       id="path3950"
       inkscape:connector-curvature="0"
       sodipodi:nodetypes="ccccccscccccsccccc" />
  </g>
  <g
     inkscape:groupmode="layer"
     id="layer10"
     inkscape:label="NEZ"
     style="display:none"
     transform="translate(-90.975558,-49.850157)"
     sodipodi:insensitive="true">
    <path
       style="display:inline;fill:#000000;fill-rule:nonzero;stroke:none;stroke-width:0.264583px;stroke-linecap:butt;stroke-linejoin:miter;stroke-opacity:1"
       d="m 144.51697,111.08645 c 0,0 0.1282,-0.0207 0.59206,-0.19921 0.33296,-0.12814 0.82367,-0.3391 1.34571,-0.6382 0.5326,-0.30514 1.04708,-0.673 1.46836,-1.10343 0.23876,-0.24395 0.43118,-0.49121 0.58155,-0.73913 0.19796,-0.32639 0.30539,-0.62502 0.3628,-0.87369 l -0.1289,0.10253 c 0,0 0.0308,-0.0354 0.0906,-0.20218 -0.52447,1.46226 -2.60497,1.42579 -3.07787,-0.054 0.21385,0.70001 0.86125,1.17709 1.59318,1.17406 0.73194,-0.003 1.37536,-0.48545 1.58341,-1.1872 0.037,-0.12465 0.079,-0.31962 0.0812,-0.58754 0.002,-0.27404 -0.037,-0.59758 -0.14047,-0.97578 -0.14141,-0.51691 -0.36489,-1.00105 -0.57604,-1.40901 0.20886,0.40355 0.41773,0.90694 0.52526,1.42127 0.0794,0.37949 0.0898,0.69779 0.0592,0.95536 -0.0299,0.25191 -0.0958,0.4204 -0.14663,0.51754 l 0.0987,-0.0671 c -0.0602,0.13628 -0.0906,0.14994 -0.0906,0.14994 -0.0314,0.0244 -0.0749,0.0258 -0.10782,0.004 -0.006,0.0331 -0.0135,0.0661 -0.0211,0.099 -0.052,0.22506 -0.14322,0.49991 -0.31734,0.80887 -0.13257,0.23521 -0.30471,0.47523 -0.52386,0.71796 -0.3881,0.42983 -0.87026,0.809 -1.38218,1.13575 -0.49891,0.31845 -0.97622,0.5551 -1.29756,0.70327 -0.44912,0.20709 -0.57174,0.24733 -0.57174,0.24733 z"
       id="path3784"
       inkscape:connector-curvature="0"
       inkscape:path-effect="#path-effect311"
       inkscape:original-d="m 144.51697,111.08645 c 0,0 3.66891,-1.18954 4.22158,-3.58342 0,0 0.69419,-0.9065 -0.44591,-3.10931" />
    <path
       style="display:inline;fill:#000000;fill-rule:nonzero;stroke:none;stroke-width:0.264583px;stroke-linecap:butt;stroke-linejoin:miter;stroke-opacity:1"
       d="m 136.83235,110.76701 c 0,0 -0.13393,-0.036 -0.59381,-0.23331 -0.32749,-0.14054 -0.80179,-0.36512 -1.26012,-0.67096 -0.22428,-0.14966 -0.43889,-0.31483 -0.6307,-0.49545 -0.20163,-0.18987 -0.36923,-0.38849 -0.49816,-0.59517 -0.14476,-0.23205 -0.23254,-0.46099 -0.27483,-0.685 -0.0556,-0.29423 -0.0288,-0.55987 0.0226,-0.7824 l -0.1289,0.10253 c 0,0 0.0134,-0.0953 0.11214,-0.41997 l 0.10113,-0.0738 c 0.059,-0.22235 0.16001,-0.54868 0.31291,-0.89591 0.15585,-0.35393 0.34975,-0.69337 0.58398,-0.9689 0.13266,-0.15604 0.26911,-0.28085 0.40742,-0.3775 0.18198,-0.12715 0.35181,-0.19471 0.49415,-0.22905 -0.14222,0.0343 -0.31403,0.095 -0.50435,0.2136 -0.14478,0.0902 -0.29054,0.20781 -0.43589,0.35783 -0.25716,0.26543 -0.47782,0.59603 -0.66429,0.94618 -0.18145,0.34072 -0.31266,0.66596 -0.39618,0.88907 l 0.10112,-0.0738 c -0.0991,0.29374 -0.11214,0.36773 -0.11214,0.36773 0.0459,-0.1696 0.0851,-0.34098 0.11727,-0.51371 -0.1131,0.19161 -0.19612,0.39944 -0.24617,0.61624 -0.058,0.25118 -0.0818,0.55729 -0.006,0.8923 0.0578,0.25452 0.16875,0.50608 0.33834,0.7514 0.15057,0.21781 0.34013,0.42023 0.55992,0.60754 0.20913,0.17823 0.43932,0.33739 0.67573,0.4782 0.48371,0.28811 0.97377,0.48777 1.31164,0.6077 0.47436,0.16838 0.61285,0.18467 0.61285,0.18467 z"
       id="path3788"
       inkscape:connector-curvature="0"
       inkscape:path-effect="#path-effect313"
       inkscape:original-d="m 136.83235,110.76701 c 0,0 -3.91659,-1.09817 -3.36392,-3.49205 0,0 0.57393,-2.48595 2.01173,-2.83287" />
    <path
       style="display:inline;fill:#000000;stroke:#000000;stroke-width:0.264583px;stroke-linecap:butt;stroke-linejoin:miter;stroke-opacity:1"
       d="m 143.3025,108.89072 c 0.79509,-0.7135 1.7743,-1.06931 2.21164,-0.96834 0.43735,0.10097 -0.0833,0.78085 -0.73138,1.06764 -0.64808,0.28678 -1.48026,-0.0993 -1.48026,-0.0993 z"
       id="path3816"
       inkscape:connector-curvature="0" />
    <path
       style="display:inline;fill:#000000;stroke:#000000;stroke-width:0.264583px;stroke-linecap:butt;stroke-linejoin:miter;stroke-opacity:1"
       d="m 137.28757,109.00525 c -1.94578,-1.75845 -1.44291,-1.8363 -2.3725,-1.90545 -0.92959,-0.0691 0.14333,0.9544 0.92416,1.35287 0.78082,0.39847 1.44834,0.55258 1.44834,0.55258 z"
       id="path3818"
       inkscape:connector-curvature="0" />
    <path
       style="display:inline;fill:#000000;fill-rule:nonzero;stroke:none;stroke-width:0.264583px;stroke-linecap:butt;stroke-linejoin:miter;stroke-opacity:1"
       d="m 144.72379,95.908395 c 0,0 0,0.132292 0,0.132292 l 0.13229,-0.133041 c 0.004,0.693482 -0.0153,-1.058 -0.0192,-1.751483 -0.006,-1.319415 -0.002,-3.5852 0.0573,-6.10129 0.0517,-2.203648 0.14,-4.362939 0.27822,-6.202776 0.0782,-1.041551 0.16695,-1.907485 0.26363,-2.616258 0.0564,-0.413453 0.11387,-0.761485 0.17118,-1.05509 0.0705,-0.361312 0.13907,-0.631355 0.20192,-0.835819 -0.0629,0.204564 -0.13339,0.473812 -0.20774,0.834649 -0.0604,0.293226 -0.12207,0.64053 -0.18369,1.053643 -0.1057,0.708664 -0.2056,1.572715 -0.29736,2.614626 -0.16229,1.842742 -0.27741,3.995377 -0.35839,6.203048 -0.0913,2.488818 -0.13012,4.811663 -0.14833,6.104185 -0.0189,1.342379 -0.0222,1.753796 -0.0222,1.754063 l 0.13229,-0.133041 c 0,0 0,0.132292 0,0.132292 z"
       id="path3928"
       inkscape:connector-curvature="0"
       inkscape:path-effect="#path-effect315"
       inkscape:original-d="m 144.72379,95.908395 c 0,0 -0.0836,-14.760203 1.08539,-18.563465" />
    <path
       style="display:inline;fill:#000000;fill-rule:nonzero;stroke:none;stroke-width:0.264583px;stroke-linecap:butt;stroke-linejoin:miter;stroke-opacity:1"
       d="m 139.33358,99.512949 c 0,0 0.12846,0.03162 0.12846,0.03162 5e-5,-2.09e-4 0.0791,-0.34793 0.34944,-1.540017 0.2581,-1.138113 0.73337,-3.246219 1.2341,-5.613072 0.44608,-2.108567 0.87806,-4.258784 1.24315,-6.271569 0.49795,-2.745262 0.73954,-4.506361 0.87126,-5.701373 -0.12944,1.174339 -0.39693,2.974069 -0.9226,5.691751 -0.38723,2.001937 -0.84791,4.157277 -1.32105,6.252933 -0.54144,2.39817 -1.0314,4.41878 -1.32206,5.589752 -0.15156,0.610604 -0.54072,2.138952 -0.38916,1.528347 0,0 0.12846,0.03162 0.12846,0.03162 z"
       id="path3936"
       inkscape:connector-curvature="0"
       inkscape:path-effect="#path-effect317"
       inkscape:original-d="m 139.33358,99.512949 c 0,0 3.11754,-12.663448 3.82641,-19.094407" />
  </g>
  <g
     inkscape:groupmode="layer"
     id="layer13"
     inkscape:label="YEUXS"
     style="display:none"
     transform="translate(-90.975558,-49.850157)"
     sodipodi:insensitive="true">
    <path
       style="display:inline;fill:#b3b3b3;stroke:none;stroke-width:0.264583px;stroke-linecap:butt;stroke-linejoin:miter;stroke-opacity:1"
       d="m 148.2159,90.653415 c 0,0 0.68021,-2.946309 4.1968,-3.686113 3.5166,-0.739804 5.84324,-0.736048 8.6229,2.13622 2.77966,2.87227 -4.49762,1.628582 -4.49762,1.628582 0,0 -6.40607,-1.866874 -8.32208,-0.07869 z"
       id="path3917"
       inkscape:connector-curvature="0" />
    <path
       style="display:inline;fill:#ffffff;stroke:none;stroke-width:0.0699653;stroke-linecap:butt;stroke-linejoin:miter;stroke-miterlimit:4;stroke-dasharray:none;stroke-opacity:1"
       d="m 149.9129,89.393837 c 0,0 1.64781,-3.77696 6.79476,-2.757238 5.14695,1.019725 2.13415,3.357936 1.32369,3.507915 -0.81046,0.149972 -6.59016,-0.229301 -8.11845,-0.750677 z"
       id="path3851"
       inkscape:connector-curvature="0" />
    <path
       style="display:inline;fill:#cccccc;stroke:#000000;stroke-width:0.063;stroke-linecap:butt;stroke-linejoin:miter;stroke-miterlimit:4;stroke-dasharray:none;stroke-opacity:1"
       d="m 157.21503,88.009519 c 0,0 -0.2827,1.854584 -0.82722,2.112841 -0.54452,0.258257 -3.37637,0.132433 -3.75257,-0.338389 -0.3762,-0.470822 -0.97871,-2.481778 -0.50127,-2.65953 0.47745,-0.177748 4.76133,-1.300573 5.08106,0.885078 z"
       id="path3853"
       inkscape:connector-curvature="0" />
    <path
       style="display:inline;fill:none;stroke:none;stroke-width:0.264583px;stroke-linecap:butt;stroke-linejoin:miter;stroke-opacity:1"
       d="m 155.12883,87.594369 c 0.50282,0.552493 0.67982,1.150989 0.15038,1.343941 -0.52945,0.192953 -0.78975,0.375307 -1.0748,0.139783 -0.28506,-0.235524 -0.69929,-1.27671 0.10106,-1.382876 0.80034,-0.106162 0.82336,-0.100848 0.82336,-0.100848 z"
       id="path3855"
       inkscape:connector-curvature="0" />
    <path
       style="display:inline;fill:none;stroke:none;stroke-width:0.264583px;stroke-linecap:butt;stroke-linejoin:miter;stroke-opacity:1"
       d="m 153.18982,89.062061 c 0.36654,-0.01236 1.0943,-0.329239 1.15807,-0.605457 0.0638,-0.276216 -0.0176,-0.973862 -0.20176,-1.016376 -0.18414,-0.04251 -0.78969,-0.255049 -0.93314,0.05126 -0.14349,0.306303 -0.41089,1.044647 -0.117,1.451927 0.29389,0.407277 0.0938,0.118647 0.0938,0.118647 z"
       id="path3857"
       inkscape:connector-curvature="0" />
    <circle
       style="display:inline;fill:#000000;stroke:none;stroke-width:0.065;stroke-miterlimit:4;stroke-dasharray:none;stroke-dashoffset:0"
       id="path4761-8"
       cx="170.18414"
       cy="51.304039"
       r="1.1209972"
       transform="rotate(13)" />
    <ellipse
       style="display:inline;fill:#ffffff;stroke:none;stroke-width:0.065;stroke-miterlimit:4;stroke-dasharray:none;stroke-dashoffset:0"
       id="path4778"
       cx="169.47536"
       cy="51.368164"
       rx="0.62602305"
       ry="0.4488467"
       transform="rotate(13)" />
    <path
       style="display:inline;fill:#000000;fill-rule:nonzero;stroke:none;stroke-width:0.264583px;stroke-linecap:butt;stroke-linejoin:miter;stroke-opacity:1"
       d="m 149.48686,86.655089 c 0,0 0.21915,-0.169424 1.1628,-0.575954 0.67579,-0.291133 1.70939,-0.669403 2.93406,-0.8672 1.25345,-0.202446 2.57919,-0.195541 3.89275,0.156461 0.74283,0.199062 1.42786,0.493953 2.05894,0.865837 0.83022,0.489227 1.49617,1.070052 2.01627,1.60592 0,0 0.0949,-0.09214 0.0949,-0.09214 0,0 0.0949,-0.09214 0.0949,-0.09214 -0.53243,-0.548583 -1.22232,-1.141372 -2.0825,-1.634404 -0.65423,-0.374988 -1.3636,-0.66754 -2.1294,-0.85866 -1.35304,-0.337675 -2.70658,-0.314767 -3.96851,-0.08123 -1.23409,0.228385 -2.26411,0.636738 -2.93288,0.949902 -0.93438,0.437538 -1.14139,0.6236 -1.14139,0.6236 z"
       id="path3906"
       inkscape:connector-curvature="0"
       inkscape:path-effect="#path-effect195"
       inkscape:original-d="m 149.48686,86.655089 c 0,0 6.84159,-4.386518 12.15975,1.092927" />
  </g>
  <g
     inkscape:groupmode="layer"
     id="layer7"
     inkscape:label="BOUCHE"
     style="display:none"
     transform="translate(-90.975558,-49.850157)"
     sodipodi:insensitive="true">
    <path
       style="display:inline;fill:#ffffff;stroke:none;stroke-width:0.265;stroke-linecap:butt;stroke-linejoin:miter;stroke-miterlimit:4;stroke-dasharray:none;stroke-opacity:1"
       d="m 128.49443,120.55345 c 0,0 1.20194,0.14034 1.84303,-0.26025 0.64108,-0.4006 4.09687,-2.00288 6.01,-1.97266 1.91311,0.0302 3.53069,0.74657 4.50734,0.0806 0.97666,-0.666 3.0601,-1.07647 3.97655,-0.59059 0.91645,0.48588 4.81768,2.00372 5.57884,2.86519 -0.39072,0.80127 -1.5627,1.42218 -1.66791,1.87791 -0.10521,0.45574 -5.41417,3.5503 -8.97998,3.54995 -3.56583,-3.3e-4 -8.2983,-2.67013 -9.29978,-4.27284 -1.00149,-1.60271 -1.96809,-1.27727 -1.96809,-1.27727 z"
       id="path3761"
       inkscape:connector-curvature="0" />
    <path
       style="display:inline;fill:none;stroke:#000000;stroke-width:0.165;stroke-linecap:butt;stroke-linejoin:miter;stroke-miterlimit:4;stroke-dasharray:none;stroke-opacity:1"
       d="m 128.49443,120.55345 c 0,0 8.77433,-0.1344 9.61567,0.23128 0.84133,0.36568 3.31038,0.21566 3.31038,0.21566 l 3.09758,-0.34777 5.89213,0.0231"
       id="path3820"
       inkscape:connector-curvature="0" />
  </g>
  <g
     inkscape:groupmode="layer"
     id="layer11"
     inkscape:label="OEIL GAUCHE"
     style="display:none"
     transform="translate(-90.975558,-49.850157)"
     sodipodi:insensitive="true">
    <path
       style="display:inline;fill:#b3b3b3;stroke:none;stroke-width:0.264583px;stroke-linecap:butt;stroke-linejoin:miter;stroke-opacity:1"
       d="m 119.0356,89.347469 c 0,0 3.20156,-2.31572 3.89216,-2.786649 0.6906,-0.470929 3.44231,-1.678259 5.83255,-0.05965 2.39023,1.618604 5.32227,3.410786 4.60337,3.584244 -0.7189,0.173457 -2.12829,-0.442862 -3.59087,-0.198652 -1.46258,0.244213 -4.98629,1.224828 -8.19461,-7.71e-4 -3.20831,-1.225594 -2.5426,-0.538514 -2.5426,-0.538514 z"
       id="path3915"
       inkscape:connector-curvature="0" />
    <path
       style="display:inline;fill:#ffffff;stroke:none;stroke-width:0.065;stroke-linecap:butt;stroke-linejoin:miter;stroke-miterlimit:4;stroke-dasharray:none;stroke-opacity:1"
       d="m 121.449,89.395504 c 0,0 1.13704,-3.034799 2.97147,-3.314391 1.83442,-0.279594 2.92869,-0.293655 4.32921,0.466089 1.40052,0.759745 0.3487,1.220015 2.13172,1.583167 -1.67867,0.970163 -2.74825,2.032457 -4.07094,2.090765 -1.32268,0.05831 -4.50983,-0.313829 -5.36146,-0.82563 z"
       id="path3839"
       inkscape:connector-curvature="0" />
    <path
       style="display:inline;fill:none;stroke:none;stroke-width:0.264583px;stroke-linecap:butt;stroke-linejoin:miter;stroke-opacity:1"
       d="m 126.41946,86.979024 c 0.45853,0.639249 0.62142,0.773834 0.33807,1.266051 -0.28335,0.492214 -0.66761,0.791422 -0.89424,0.617877 -0.22663,-0.173546 -1.25346,-1.816816 -0.67266,-2.022155 0.5808,-0.205341 1.22883,0.138227 1.22883,0.138227 z"
       id="path3859"
       inkscape:connector-curvature="0" />
    <path
       style="display:inline;fill:#cccccc;stroke:#000000;stroke-width:0.065;stroke-linecap:butt;stroke-linejoin:miter;stroke-miterlimit:4;stroke-dasharray:none;stroke-opacity:1"
       d="m 123.3774,87.658671 c 0,0 -0.52422,1.115464 0.69395,1.614903 1.21817,0.49944 3.17472,0.635968 3.5643,0.313741 0.38957,-0.322224 1.02531,-0.975533 0.87668,-2.222092 -0.14861,-1.246556 -4.14486,-2.629815 -5.13493,0.293448 z"
       id="path3845"
       inkscape:connector-curvature="0" />
    <path
       style="display:inline;fill:none;stroke:none;stroke-width:0.265;stroke-linecap:butt;stroke-linejoin:miter;stroke-miterlimit:4;stroke-dasharray:none;stroke-dashoffset:0;stroke-opacity:1"
       d="m 125.19063,86.840797 c 1.00921,0.669403 1.20043,0.786284 0.76127,1.218282 -0.43917,0.432 -1.29265,0.768344 -1.5423,0.589486 -0.24964,-0.178859 -0.54873,-1.823828 0.78103,-1.807768 z"
       id="path3847"
       inkscape:connector-curvature="0" />
    <path
       style="display:inline;fill:none;stroke:none;stroke-width:0.0167044"
       d="m 125.90886,88.705003 c -0.0334,-0.03576 -0.0927,-0.110181 -0.13175,-0.165365 l -0.0709,-0.100341 0.12635,-0.09732 c 0.38235,-0.294521 0.52269,-0.518316 0.46485,-0.741266 -0.0379,-0.146174 -0.23927,-0.345595 -0.58652,-0.580899 -0.12805,-0.08677 -0.14065,-0.09946 -0.10432,-0.105072 0.0673,-0.0104 0.47286,0.07451 0.60072,0.125736 0.11476,0.046 0.11784,0.04879 0.24083,0.219218 0.17338,0.240273 0.27443,0.411155 0.29776,0.503535 0.0285,0.11271 -0.023,0.272614 -0.15481,0.480735 -0.1205,0.190321 -0.18984,0.275303 -0.31661,0.388097 -0.0884,0.07869 -0.23853,0.153248 -0.28628,0.142223 -0.0101,-0.0023 -0.0458,-0.03353 -0.0793,-0.06928 z"
       id="path3877"
       inkscape:connector-curvature="0" />
    <path
       style="display:inline;fill:none;stroke-width:0.0167044"
       d="m 125.48083,88.036576 c -0.20142,-0.381285 -0.33004,-0.766692 -0.31101,-0.931919 0.005,-0.04256 0.0125,-0.07647 0.0176,-0.07531 0.0266,0.0061 0.33242,0.208514 0.48843,0.323231 0.22273,0.163794 0.33999,0.280101 0.3411,0.338323 7.3e-4,0.02352 -0.0145,0.06746 -0.0329,0.09789 -0.0391,0.06424 -0.3077,0.320781 -0.37927,0.362117 l -0.0488,0.02817 z"
       id="path3885"
       inkscape:connector-curvature="0" />
    <path
       style="display:inline;fill:none;stroke:none;stroke-width:0.0167044"
       d="m 124.45694,88.474585 c -0.11171,-0.195741 -0.15372,-0.606003 -0.0902,-0.881042 0.0629,-0.272301 0.19357,-0.4397 0.42316,-0.542196 l 0.0978,-0.04365 -0.007,0.08756 c -0.0205,0.247053 0.11452,0.65817 0.37605,1.144853 l 0.0546,0.101655 -0.15176,0.06617 c -0.2471,0.10772 -0.41651,0.148189 -0.60896,0.145457 -0.0415,-5.59e-4 -0.0556,-0.01256 -0.0934,-0.0788 z"
       id="path3881"
       inkscape:connector-curvature="0" />
    <circle
       style="display:inline;fill:#000000;stroke:none;stroke-width:0.065;stroke-miterlimit:4;stroke-dasharray:none;stroke-dashoffset:0"
       id="path4761"
       cx="142.29155"
       cy="57.335823"
       r="1.1209972"
       transform="rotate(13)" />
    <ellipse
       style="display:inline;fill:#ffffff;stroke:none;stroke-width:0.065;stroke-miterlimit:4;stroke-dasharray:none;stroke-dashoffset:0"
       id="path4778-3"
       cx="141.77678"
       cy="57.067513"
       rx="0.62602305"
       ry="0.44884673"
       transform="rotate(13)" />
    <path
       style="display:inline;fill:#000000;fill-rule:nonzero;stroke:none;stroke-width:0.264583px;stroke-linecap:butt;stroke-linejoin:miter;stroke-opacity:1"
       d="m 134.75755,89.563456 c 0,0 -0.0818,-0.367608 -0.8266,-1.420767 -0.53014,-0.749608 -1.41472,-1.788069 -2.71349,-2.606707 -0.63539,-0.400504 -1.35576,-0.739476 -2.16605,-0.971568 -0.85182,-0.243986 -1.7703,-0.360493 -2.75507,-0.328634 -1.1074,0.03583 -2.23613,0.257181 -3.37044,0.631131 -1.49117,0.491597 -2.86512,1.205389 -4.00775,1.902769 0,0 0.0689,0.112921 0.0689,0.112921 0,0 0.0689,0.112921 0.0689,0.112921 1.13227,-0.691058 2.48346,-1.400148 3.94783,-1.895203 1.11297,-0.376259 2.21744,-0.604001 3.30067,-0.65235 0.96307,-0.04299 1.8629,0.05795 2.70051,0.283443 0.79705,0.214573 1.50985,0.534438 2.14296,0.917135 1.29527,0.782943 2.19354,1.790863 2.74072,2.524835 0.76724,1.029156 0.86887,1.390074 0.86887,1.390074 z"
       id="path3902"
       inkscape:connector-curvature="0"
       inkscape:path-effect="#path-effect256"
       inkscape:original-d="m 134.75755,89.563456 c 0,0 -4.27607,-9.696227 -15.77048,-2.680855" />
  </g>
  <g
     inkscape:groupmode="layer"
     id="layer2"
     inkscape:label="OREILLE GAUCHE"
     style="display:none"
     transform="translate(-90.975558,-49.850157)"
     sodipodi:insensitive="true">
    <path
       style="display:inline;fill:#ffffff;stroke:#000000;stroke-width:0.264583px;stroke-linecap:butt;stroke-linejoin:miter;stroke-opacity:1"
       d="m 106.89379,112.53485 c 0,0 3.98899,3.19996 4.27959,0.89104 -0.51144,-2.93049 -1.5397,-8.13809 -1.72191,-9.97428 -0.1822,-1.83619 -0.80373,-9.779907 -1.08477,-10.963367 -0.53966,0.0418 -2.47129,-1.567903 -3.45224,-1.624658 -0.98094,-0.05675 -1.90715,1.644761 -2.00642,2.809842 -0.0993,1.165081 0.47763,4.862272 0.67942,5.563466 0.1894,0.649852 0.55401,2.115987 0.3502,4.153997 -0.20382,2.03801 0.5026,2.75873 1.00532,4.25676 0.50273,1.49802 1.1771,4.24791 1.95081,4.88719 z"
       id="path3749"
       inkscape:connector-curvature="0" />
  </g>
  <g
     inkscape:groupmode="layer"
     id="layer4"
     inkscape:label="OREILLE DROITE"
     style="display:none"
     transform="translate(-90.975558,-49.850157)"
     sodipodi:insensitive="true">
    <path
       style="display:inline;fill:#ffffff;stroke:#000000;stroke-width:0.264583px;stroke-linecap:butt;stroke-linejoin:miter;stroke-opacity:1"
       d="m 167.91898,91.767666 c 0,0 0.7061,0.50589 1.3647,0.177916 0.65861,-0.327974 2.68682,0.688879 2.98963,2.644597 0.30281,1.955721 -0.33822,1.910586 -0.37589,2.964805 -0.0377,1.054217 -0.87406,1.409718 -1.17209,1.958084 -0.29804,0.548372 -0.7289,2.266132 -0.32333,3.182662 0.40558,0.91654 0.005,3.84127 -0.51125,4.4422 -0.5159,0.60094 -1.05945,2.36126 -1.18725,3.36038 -0.12781,0.99912 -1.48529,3.90874 -2.92267,4.19407 -0.16002,-2.57421 0.56665,-7.65243 0.7946,-8.49128 0.22794,-0.83885 1.75603,-7.309272 1.50829,-8.909403 -0.24775,-1.600137 -0.30251,-5.075815 -0.16474,-5.524031 z"
       id="path3752"
       inkscape:connector-curvature="0" />
  </g>
  <g
     inkscape:groupmode="layer"
     id="layer8"
     inkscape:label="SOURCIL GAUCHE"
     style="display:none"
     transform="translate(-90.975558,-49.850157)"
     sodipodi:insensitive="true">
    <path
       style="fill:#999999;stroke:none;stroke-width:0.264583px;stroke-linecap:butt;stroke-linejoin:miter;stroke-opacity:1"
       d="m 135.83624,82.315997 c 0,0 -8.30081,-0.170762 -9.84121,-1.059777 -1.54038,-0.889015 -11.58724,0.62218 -11.55206,3.200263 -0.3505,-1.002227 -0.0954,-2.107091 0.93523,-3.420822 1.03064,-1.31373 5.79397,-4.093216 7.40881,-4.156807 1.61485,-0.06359 6.83466,0.850558 8.58761,0.818851 1.75296,-0.03171 4.01231,0.0535 5.18781,2.312965 1.17551,2.259471 -0.72619,2.305327 -0.72619,2.305327 z"
       id="path3764"
       inkscape:connector-curvature="0" />
  </g>
  <g
     inkscape:groupmode="layer"
     id="layer9"
     inkscape:label="SOURCIL DROIT"
     style="display:inline"
     transform="translate(-90.975558,-49.850157)"
     sodipodi:insensitive="true">
    <path
       style="display:inline;fill:#999999;stroke:none;stroke-width:0.264583px;stroke-linecap:butt;stroke-linejoin:miter;stroke-opacity:1"
       d="m 148.63333,82.926425 c 0,0 6.99159,-1.917476 9.65088,-1.406391 2.65929,0.511084 5.97212,1.310196 6.54291,2.847762 0.57079,1.537562 1.08407,2.136089 1.29433,3.007531 0.546,-1.176871 -0.12468,-5.549068 -0.12468,-5.549068 0,0 -2.65905,-3.185451 -5.67388,-4.087205 -3.01484,-0.901755 -10.23433,1.40884 -12.14247,1.654061 -1.90814,0.245221 -1.91337,2.644137 -1.42762,3.06487 0.48575,0.42073 1.88053,0.468441 1.88053,0.46844 z"
       id="path3767"
       inkscape:connector-curvature="0" />
  </g>
</svg>
