<?xml version="1.0" encoding="UTF-8" standalone="no"?>
<svg
   xmlns:dc="http://purl.org/dc/elements/1.1/"
   xmlns:cc="http://creativecommons.org/ns#"
   xmlns:rdf="http://www.w3.org/1999/02/22-rdf-syntax-ns#"
   xmlns:svg="http://www.w3.org/2000/svg"
   xmlns="http://www.w3.org/2000/svg"
   xmlns:xlink="http://www.w3.org/1999/xlink"
   xmlns:sodipodi="http://sodipodi.sourceforge.net/DTD/sodipodi-0.dtd"
   xmlns:inkscape="http://www.inkscape.org/namespaces/inkscape"
   width="116.91381mm"
   height="99.296104mm"
   viewBox="0 0 116.91381 99.296104"
   version="1.1"
   id="svg8"
   inkscape:version="1.0.2 (e86c870879, 2021-01-15, custom)"
   sodipodi:docname="back.svg">
  <defs
     id="defs2">
    <linearGradient
       inkscape:collect="always"
       id="linearGradient2921">
      <stop
         style="stop-color:#3c0066;stop-opacity:1"
         offset="0"
         id="stop2917" />
      <stop
         style="stop-color:#9000f7;stop-opacity:1"
         offset="0.53333336"
         id="stop2925" />
      <stop
         style="stop-color:#c87aff;stop-opacity:1"
         offset="1"
         id="stop2919" />
    </linearGradient>
    <linearGradient
       inkscape:collect="always"
       xlink:href="#linearGradient2921"
       id="linearGradient2923"
       x1="621.90173"
       y1="472.44095"
       x2="180.02419"
       y2="500.78741"
       gradientUnits="userSpaceOnUse" />
  </defs>
  <sodipodi:namedview
     id="base"
     pagecolor="#ffffff"
     bordercolor="#666666"
     borderopacity="1.0"
     inkscape:pageopacity="0.0"
     inkscape:pageshadow="2"
     inkscape:zoom="1.1909911"
     inkscape:cx="197.26841"
     inkscape:cy="127.12717"
     inkscape:document-units="mm"
     inkscape:current-layer="layer5"
     inkscape:document-rotation="0"
     showgrid="true"
     inkscape:window-width="1920"
     inkscape:window-height="1002"
     inkscape:window-x="-8"
     inkscape:window-y="-8"
     inkscape:window-maximized="1">
    <inkscape:grid
       type="xygrid"
       id="grid5508"
       visible="false" />
    <inkscape:grid
       type="axonomgrid"
       id="grid5577" />
  </sodipodi:namedview>
  <metadata
     id="metadata5">
    <rdf:RDF>
      <cc:Work
         rdf:about="">
        <dc:format>image/svg+xml</dc:format>
        <dc:type
           rdf:resource="http://purl.org/dc/dcmitype/StillImage" />
        <dc:title />
      </cc:Work>
    </rdf:RDF>
  </metadata>
  <g
     inkscape:groupmode="layer"
     id="layer9"
     inkscape:label="fond"
     style="display:inline"
     transform="translate(-47.631201,-85.625077)"
     sodipodi:insensitive="true">
    <path
       id="path12-7"
       style="display:inline;fill:url(#linearGradient2923);fill-opacity:1;stroke:none;stroke-width:0.999999px;stroke-linecap:butt;stroke-linejoin:miter;stroke-opacity:1"
       d="m 422.08594,324.50391 c -2.3439,0.0862 -6.29083,2.36649 -12.93946,6.20507 L 196.39062,453.54297 c -14.33221,8.27472 -16.11269,9.30705 -16.33398,22.12695 -0.0314,1.81902 -0.0332,3.87254 -0.0332,6.2207 v 37.79493 c 0,2.3622 0.001,4.42864 0.0332,6.21875 0.17393,10.07622 1.33949,12.88048 8.77734,17.63281 0.0608,0.0392 0.12359,0.0795 0.18555,0.11914 0.49428,0.31356 1.02201,0.63902 1.57227,0.97266 0.21571,0.13105 0.43752,0.26859 0.66406,0.40429 1.5058,0.90086 3.19744,1.87953 5.13476,2.99805 l 163.65821,94.48828 c 2.04933,1.18318 3.84194,2.21764 5.41015,3.08594 0.007,0.004 0.0165,0.01 0.0234,0.0137 9.58937,5.31496 12.27389,5.31496 21.86328,0 0.009,-0.005 0.0221,-0.0125 0.0312,-0.0176 1.56625,-0.86736 3.35662,-1.90093 5.40235,-3.08203 L 605.53516,519.68555 c 2.04572,-1.18111 3.8368,-2.21595 5.37109,-3.13867 8.63113,-5.18399 10.48162,-7.59622 10.88086,-16.39454 0.004,-0.0896 0.01,-0.18193 0.0137,-0.27343 0.024,-0.57984 0.0411,-1.19481 0.0547,-1.83203 0.005,-0.24565 0.0134,-0.49915 0.0176,-0.75586 0.0274,-1.75641 0.0293,-3.71285 0.0293,-5.95313 v -37.79492 c 0,-2.34819 1.9e-4,-4.39976 -0.0312,-6.21875 -0.22154,-12.81977 -2.00369,-13.85224 -16.33593,-22.12695 L 441.87695,330.70898 c -6.64862,-3.83858 -10.59555,-6.11886 -12.93945,-6.20507 -3.4257,-0.12601 -3.42578,4.43382 -3.42578,15.65429 0,-11.22047 -8e-5,-15.7803 -3.42578,-15.65429 z m 3.42578,53.44921 c 0,18.89764 -6.1e-4,18.89689 16.36523,28.34571 -16.36584,-9.44878 -16.36462,-9.44878 -32.73047,0 16.36585,-9.44882 16.36524,-9.44807 16.36524,-28.34571 z"
       transform="scale(0.26458333)" />
  </g>
  <g
     inkscape:groupmode="layer"
     id="layer10"
     inkscape:label="haut"
     style="display:inline"
     transform="translate(-47.631201,-85.625077)">
    <path
       style="display:inline;fill:#c87aff;fill-opacity:1;stroke:none;stroke-width:0.264583px;stroke-linecap:butt;stroke-linejoin:miter;stroke-opacity:1"
       d="m 51.961524,125 43.301268,25 c 4.33013,2.5 4.33013,2.5 8.660278,0 l 56.29165,-32.5 c 4.33012,-2.5 4.33012,-2.5 0,-5 -20.70754,-11.95551 -29.68125,-17.136459 -43.30127,-24.999934 -4.33013,-2.499985 -4.33013,-2.499985 -8.66026,0 L 51.961524,120 c -4.330127,2.5 -4.330127,2.5 0,5 z"
       id="path12"
       sodipodi:nodetypes="ccccccccc" />
  </g>
  <g
     inkscape:groupmode="layer"
     id="layer5"
     inkscape:label="haut 1"
     style="display:inline">
    <circle
       style="fill:#000000;fill-opacity:1;fill-rule:evenodd;stroke:none;stroke-width:0.271919"
       id="path5579"
       cx="-17.720221"
       cy="65.916283"
       transform="matrix(0.32732684,-0.94491118,0.98198051,0.18898223,0,0)"
       r="0" />
    <circle
       style="display:inline;fill:#000000;fill-opacity:1;fill-rule:evenodd;stroke:none;stroke-width:0.271919"
       id="path5579-9"
       cx="-22.843132"
       cy="70.183403"
       transform="matrix(0.32732684,-0.94491118,0.98198051,0.18898223,0,0)"
       r="0" />
    <circle
       style="display:inline;fill:#000000;fill-opacity:1;fill-rule:evenodd;stroke:none;stroke-width:0.271919"
       id="path5579-6"
       cx="-22.843132"
       cy="70.183403"
       transform="matrix(0.32732684,-0.94491118,0.98198051,0.18898223,0,0)"
       r="0" />
    <circle
       style="display:inline;fill:#000000;fill-opacity:1;fill-rule:evenodd;stroke:none;stroke-width:0.271919"
       id="path5579-3"
       cx="-16.194532"
       cy="65.887642"
       transform="matrix(0.32732684,-0.94491118,0.98198051,0.18898223,0,0)"
       r="0" />
    <circle
       style="display:inline;fill:#000000;fill-opacity:1;fill-rule:evenodd;stroke:none;stroke-width:0.271919"
       id="path5579-5"
       cx="-21.4447"
       cy="67.637672"
       transform="matrix(0.32732684,-0.94491118,0.98198051,0.18898223,0,0)"
       r="0" />
    <circle
       style="display:inline;fill:#000000;fill-opacity:1;fill-rule:evenodd;stroke:none;stroke-width:0.271919"
       id="path5579-7"
       cx="-19.344635"
       cy="66.93766"
       transform="matrix(0.32732684,-0.94491118,0.98198051,0.18898223,0,0)"
       r="0" />
    <circle
       style="display:inline;fill:#000000;fill-opacity:1;fill-rule:evenodd;stroke:none;stroke-width:0.271919"
       id="path5579-79"
       cx="-19.344635"
       cy="66.93766"
       transform="matrix(0.32732684,-0.94491118,0.98198051,0.18898223,0,0)"
       r="0" />
    <circle
       style="display:inline;fill:#000000;fill-opacity:1;fill-rule:evenodd;stroke:none;stroke-width:0.271919"
       id="path5579-90"
       cx="-19.344635"
       cy="66.93766"
       transform="matrix(0.32732684,-0.94491118,0.98198051,0.18898223,0,0)"
       r="0" />
    <circle
       style="display:inline;fill:#000000;fill-opacity:1;fill-rule:evenodd;stroke:none;stroke-width:0.271919"
       id="path5579-97"
       cx="-19.344635"
       cy="66.93766"
       transform="matrix(0.32732684,-0.94491118,0.98198051,0.18898223,0,0)"
       r="0" />
    <circle
       style="display:inline;fill:#000000;fill-opacity:1;fill-rule:evenodd;stroke:none;stroke-width:0.271919"
       id="path5579-8"
       cx="-19.344635"
       cy="66.93766"
       transform="matrix(0.32732684,-0.94491118,0.98198051,0.18898223,0,0)"
       r="0" />
    <circle
       style="display:inline;fill:#000000;fill-opacity:1;fill-rule:evenodd;stroke:none;stroke-width:0.271919"
       id="path5579-2"
       cx="-19.344635"
       cy="66.93766"
       transform="matrix(0.32732684,-0.94491118,0.98198051,0.18898223,0,0)"
       r="0" />
    <circle
       style="display:inline;fill:#000000;fill-opacity:1;fill-rule:evenodd;stroke:none;stroke-width:0.271919"
       id="path5579-81"
       cx="-19.344635"
       cy="66.93766"
       transform="matrix(0.32732684,-0.94491118,0.98198051,0.18898223,0,0)"
       r="0" />
    <circle
       style="display:inline;fill:#000000;fill-opacity:1;fill-rule:evenodd;stroke:none;stroke-width:0.271919"
       id="path5579-94"
       cx="-19.344635"
       cy="66.93766"
       transform="matrix(0.32732684,-0.94491118,0.98198051,0.18898223,0,0)"
       r="0" />
    <circle
       style="display:inline;fill:#000000;fill-opacity:1;fill-rule:evenodd;stroke:none;stroke-width:0.271919"
       id="path5579-89"
       cx="-19.344635"
       cy="66.93766"
       transform="matrix(0.32732684,-0.94491118,0.98198051,0.18898223,0,0)"
       r="0" />
    <circle
       style="display:inline;fill:#000000;fill-opacity:1;fill-rule:evenodd;stroke:none;stroke-width:0.271919"
       id="path5579-940"
       cx="-23.343901"
       cy="61.07214"
       transform="matrix(0.32732684,-0.94491118,0.98198051,0.18898223,0,0)"
       r="0" />
    <circle
       style="display:inline;fill:#000000;fill-opacity:1;fill-rule:evenodd;stroke:none;stroke-width:0.271919"
       id="path5579-80"
       cx="-15.802321"
       cy="63.037415"
       transform="matrix(0.32732684,-0.94491118,0.98198051,0.18898223,0,0)"
       r="0" />
    <circle
       style="display:inline;fill:#000000;fill-opacity:1;fill-rule:evenodd;stroke:none;stroke-width:0.271919"
       id="path5579-4"
       cx="-22.677568"
       cy="67.728699"
       transform="matrix(0.32732684,-0.94491118,0.98198051,0.18898223,0,0)"
       r="0" />
    <ellipse
       style="fill:#c87aff;fill-rule:evenodd;stroke:#ffffff;stroke-width:0.382138;stroke-opacity:1;fill-opacity:1"
       id="path899"
       cx="0.62515461"
       cy="66.875076"
       rx="19.300602"
       ry="22.286415"
       transform="matrix(0.8660254,-0.5,0.8660254,0.5,0,0)" />
    <ellipse
       style="display:inline;fill:#c87aff;fill-opacity:1;fill-rule:evenodd;stroke:#ffffff;stroke-width:0.32968;stroke-opacity:1"
       id="path899-5"
       cx="0.62515634"
       cy="66.875076"
       rx="16.651108"
       ry="19.227043"
       transform="matrix(0.8660254,-0.5,0.8660254,0.5,0,0)" />
    <ellipse
       style="fill:#c87aff;fill-opacity:1;fill-rule:evenodd;stroke:#ffffff;stroke-width:0.529167;stroke-opacity:1"
       id="path970"
       cx="80.925964"
       cy="45.244102"
       rx="0.91592878"
       ry="0.52881175" />
  </g>
</svg>
