<?xml version="1.0" encoding="UTF-8" standalone="no"?>
<svg
   xmlns:dc="http://purl.org/dc/elements/1.1/"
   xmlns:cc="http://creativecommons.org/ns#"
   xmlns:rdf="http://www.w3.org/1999/02/22-rdf-syntax-ns#"
   xmlns:svg="http://www.w3.org/2000/svg"
   xmlns="http://www.w3.org/2000/svg"
   xmlns:xlink="http://www.w3.org/1999/xlink"
   xmlns:sodipodi="http://sodipodi.sourceforge.net/DTD/sodipodi-0.dtd"
   xmlns:inkscape="http://www.inkscape.org/namespaces/inkscape"
   width="116.91381mm"
   height="99.296104mm"
   viewBox="0 0 116.91381 99.296104"
   version="1.1"
   id="svg8"
   inkscape:version="1.0.2 (e86c870879, 2021-01-15, custom)"
   sodipodi:docname="design.svg">
  <defs
     id="defs2">
    <linearGradient
       inkscape:collect="always"
       id="linearGradient2921">
      <stop
         style="stop-color:#664400;stop-opacity:1"
         offset="0"
         id="stop2917" />
      <stop
         style="stop-color:#f7a500;stop-opacity:1"
         offset="0.53333336"
         id="stop2925" />
      <stop
         style="stop-color:#ffd37a;stop-opacity:1"
         offset="1"
         id="stop2919" />
    </linearGradient>
    <linearGradient
       inkscape:collect="always"
       xlink:href="#linearGradient2921"
       id="linearGradient2923"
       x1="621.90173"
       y1="472.44095"
       x2="180.02419"
       y2="500.78741"
       gradientUnits="userSpaceOnUse" />
  </defs>
  <sodipodi:namedview
     id="base"
     pagecolor="#ffffff"
     bordercolor="#666666"
     borderopacity="1.0"
     inkscape:pageopacity="0.0"
     inkscape:pageshadow="2"
     inkscape:zoom="1.979899"
     inkscape:cx="224.44432"
     inkscape:cy="130.67443"
     inkscape:document-units="mm"
     inkscape:current-layer="layer1"
     inkscape:document-rotation="0"
     showgrid="true"
     inkscape:window-width="1920"
     inkscape:window-height="1002"
     inkscape:window-x="-8"
     inkscape:window-y="-8"
     inkscape:window-maximized="1">
    <inkscape:grid
       type="axonomgrid"
       id="grid10"
       visible="false"
       originx="-47.631201"
       originy="-85.625078" />
    <inkscape:grid
       type="xygrid"
       id="grid855" />
  </sodipodi:namedview>
  <metadata
     id="metadata5">
    <rdf:RDF>
      <cc:Work
         rdf:about="">
        <dc:format>image/svg+xml</dc:format>
        <dc:type
           rdf:resource="http://purl.org/dc/dcmitype/StillImage" />
        <dc:title></dc:title>
      </cc:Work>
    </rdf:RDF>
  </metadata>
  <g
     inkscape:groupmode="layer"
     id="layer9"
     inkscape:label="fond"
     style="display:inline"
     transform="translate(-47.631201,-85.625077)"
     sodipodi:insensitive="true">
    <path
       id="path12-7"
       style="display:inline;fill:url(#linearGradient2923);fill-opacity:1;stroke:none;stroke-width:0.999999px;stroke-linecap:butt;stroke-linejoin:miter;stroke-opacity:1"
       d="m 422.08594,324.50391 c -2.3439,0.0862 -6.29083,2.36649 -12.93946,6.20507 L 196.39062,453.54297 c -14.33221,8.27472 -16.11269,9.30705 -16.33398,22.12695 -0.0314,1.81902 -0.0332,3.87254 -0.0332,6.2207 v 37.79493 c 0,2.3622 0.001,4.42864 0.0332,6.21875 0.17393,10.07622 1.33949,12.88048 8.77734,17.63281 0.0608,0.0392 0.12359,0.0795 0.18555,0.11914 0.49428,0.31356 1.02201,0.63902 1.57227,0.97266 0.21571,0.13105 0.43752,0.26859 0.66406,0.40429 1.5058,0.90086 3.19744,1.87953 5.13476,2.99805 l 163.65821,94.48828 c 2.04933,1.18318 3.84194,2.21764 5.41015,3.08594 0.007,0.004 0.0165,0.01 0.0234,0.0137 9.58937,5.31496 12.27389,5.31496 21.86328,0 0.009,-0.005 0.0221,-0.0125 0.0312,-0.0176 1.56625,-0.86736 3.35662,-1.90093 5.40235,-3.08203 L 605.53516,519.68555 c 2.04572,-1.18111 3.8368,-2.21595 5.37109,-3.13867 8.63113,-5.18399 10.48162,-7.59622 10.88086,-16.39454 0.004,-0.0896 0.01,-0.18193 0.0137,-0.27343 0.024,-0.57984 0.0411,-1.19481 0.0547,-1.83203 0.005,-0.24565 0.0134,-0.49915 0.0176,-0.75586 0.0274,-1.75641 0.0293,-3.71285 0.0293,-5.95313 v -37.79492 c 0,-2.34819 1.9e-4,-4.39976 -0.0312,-6.21875 -0.22154,-12.81977 -2.00369,-13.85224 -16.33593,-22.12695 L 441.87695,330.70898 c -6.64862,-3.83858 -10.59555,-6.11886 -12.93945,-6.20507 -3.4257,-0.12601 -3.42578,4.43382 -3.42578,15.65429 0,-11.22047 -8e-5,-15.7803 -3.42578,-15.65429 z m 3.42578,53.44921 c 0,18.89764 -6.1e-4,18.89689 16.36523,28.34571 -16.36584,-9.44878 -16.36462,-9.44878 -32.73047,0 16.36585,-9.44882 16.36524,-9.44807 16.36524,-28.34571 z"
       transform="scale(0.26458333)" />
  </g>
  <g
     inkscape:groupmode="layer"
     id="layer10"
     inkscape:label="haut"
     style="display:inline"
     transform="translate(-47.631201,-85.625077)">
    <path
       style="display:inline;fill:#ffe87a;fill-opacity:1;stroke:none;stroke-width:0.264583px;stroke-linecap:butt;stroke-linejoin:miter;stroke-opacity:1"
       d="m 51.961524,125 43.301268,25 c 4.33013,2.5 4.33013,2.5 8.660278,0 l 56.29165,-32.5 c 4.33012,-2.5 4.33012,-2.5 0,-5 -20.70754,-11.95551 -29.68125,-17.136459 -43.30127,-24.999934 -4.33013,-2.499985 -4.33013,-2.499985 -8.66026,0 L 51.961524,120 c -4.330127,2.5 -4.330127,2.5 0,5 z"
       id="path12"
       sodipodi:nodetypes="ccccccccc" />
  </g>
  <g
     inkscape:groupmode="layer"
     id="layer1"
     inkscape:label="fond 1"
     style="display:inline">
    <path
       style="fill:#ffe87a;stroke:#ffffff;stroke-width:0.264582;stroke-linecap:butt;stroke-linejoin:miter;stroke-miterlimit:4;stroke-dasharray:none;stroke-opacity:1;fill-opacity:1"
       d="m 82.116238,32.971119 c 1.302373,0.222323 1.574691,0.989592 1.574691,0.989592 l -0.817903,1.0529 -29.808856,-8.05945 -5.148967,-3.079532 z"
       id="path879-1" />
    <path
       style="fill:#ffe87a;stroke:#ffffff;stroke-width:0.264582;stroke-linecap:butt;stroke-linejoin:miter;stroke-miterlimit:4;stroke-dasharray:none;stroke-opacity:1;fill-opacity:1"
       d="m 83.706998,33.969988 c 0,0 4.508456,1.382865 4.532684,1.701877 0.02423,0.319012 -0.538398,0.278462 -0.649957,0.234794 -0.11156,-0.04367 -4.39749,-1.249393 -4.39749,-1.249393 z"
       id="path881-6" />
    <path
       style="fill:#ffe87a;stroke:#ffffff;stroke-width:0.264582;stroke-linecap:butt;stroke-linejoin:miter;stroke-miterlimit:4;stroke-dasharray:none;stroke-opacity:1;fill-opacity:1"
       d="m 59.3081,45.890707 c 0.385075,0.751925 1.714024,0.909148 1.714024,0.909148 l 1.823677,-0.472217 -13.959377,-17.21015 -5.333906,-2.972757 z"
       id="path879" />
    <path
       style="fill:#ffe87a;stroke:#ffffff;stroke-width:0.264582;stroke-linecap:butt;stroke-linejoin:miter;stroke-miterlimit:4;stroke-dasharray:none;stroke-opacity:1;fill-opacity:1"
       d="m 61.038193,46.809132 c 0,0 2.395192,2.602958 2.947737,2.616947 0.552544,0.01399 0.48231,-0.310844 0.406674,-0.375254 -0.07564,-0.06441 -2.164011,-2.538891 -2.164011,-2.538891 z"
       id="path881" />
    <ellipse
       style="fill:#ffe87a;fill-opacity:1;fill-rule:evenodd;stroke:#ffffff;stroke-width:0.284312;stroke-miterlimit:4;stroke-dasharray:none;stroke-opacity:1"
       id="path907"
       cx="12.450807"
       cy="78.359856"
       transform="matrix(0.86602542,-0.49999997,0.86602541,0.49999999,0,0)"
       rx="1.8203133"
       ry="2.1019168" />
    <path
       style="fill:#ffe87a;stroke:#ffffff;stroke-width:0.264582;stroke-linecap:butt;stroke-linejoin:miter;stroke-miterlimit:4;stroke-dasharray:none;stroke-opacity:1;fill-opacity:1"
       d="m 51.283698,39.957278 c 0,0 20.076006,-11.590886 20.604322,-11.89591 0.528316,-0.305023 0.825926,-0.145466 1.143675,0.04412 0.31775,0.189586 0.08401,0.655919 -0.305023,0.880526 -0.389031,0.224607 -19.694566,11.370662 -20.222881,11.675685 -0.528315,0.305022 -0.919756,0.30363 -1.332877,0.06511 -0.41312,-0.238515 -0.415532,-0.464513 0.112784,-0.769537"
       id="path909" />
    <path
       style="fill:#ffe87a;stroke:#ffffff;stroke-width:0.264582;stroke-linecap:butt;stroke-linejoin:miter;stroke-miterlimit:4;stroke-dasharray:none;stroke-opacity:1;fill-opacity:1"
       d="m 35.699739,19.368988 c 0,0 -0.152617,0.08811 -0.528316,0.305024 -0.3757,0.21691 0.08173,0.657234 0.08173,0.657234 l 3.355256,1.937158 c 0,0 -0.520711,0.307984 -0.789289,0.459374 -0.268581,0.151388 -0.11264,0.484009 -0.11264,0.484009 0,0 10.610304,6.125862 10.675818,6.163686 0.06551,0.03783 0.36355,0.212757 0.576116,0.09003 0.212563,-0.122725 3.910775,-2.257888 4.06927,-2.349395 0.158495,-0.09151 0.131777,-0.35785 -0.05422,-0.461789 -0.186002,-0.103938 -10.421477,-6.013392 -10.611146,-6.122898 -0.189668,-0.109505 -0.425514,-0.184666 -0.689672,-0.03215 -0.264158,0.152512 -0.962453,0.542411 -0.962453,0.542411 0,0 -2.733725,-1.578316 -3.343772,-1.930527 -0.610047,-0.352211 -1.032699,-0.108192 -1.666679,0.257836 z"
       id="path875" />
    <ellipse
       style="fill:none;fill-opacity:1;fill-rule:evenodd;stroke:#ffffff;stroke-width:0.284312;stroke-miterlimit:4;stroke-dasharray:none;stroke-opacity:1"
       id="path877"
       cx="1.2440042"
       cy="48.855949"
       transform="matrix(0.86602542,-0.49999997,0.86602541,0.49999999,0,0)"
       rx="1.2844919"
       ry="1.4832036" />
  </g>
</svg>
