<?xml version="1.0" encoding="UTF-8" standalone="no"?>
<svg
   xmlns:dc="http://purl.org/dc/elements/1.1/"
   xmlns:cc="http://creativecommons.org/ns#"
   xmlns:rdf="http://www.w3.org/1999/02/22-rdf-syntax-ns#"
   xmlns:svg="http://www.w3.org/2000/svg"
   xmlns="http://www.w3.org/2000/svg"
   xmlns:xlink="http://www.w3.org/1999/xlink"
   xmlns:sodipodi="http://sodipodi.sourceforge.net/DTD/sodipodi-0.dtd"
   xmlns:inkscape="http://www.inkscape.org/namespaces/inkscape"
   width="116.91381mm"
   height="99.296104mm"
   viewBox="0 0 116.91381 99.296104"
   version="1.1"
   id="svg8"
   inkscape:version="1.0.2 (e86c870879, 2021-01-15, custom)"
   sodipodi:docname="front.svg">
  <defs
     id="defs2">
    <linearGradient
       inkscape:collect="always"
       id="linearGradient2954">
      <stop
         style="stop-color:#000000;stop-opacity:1"
         offset="0"
         id="stop2950" />
      <stop
         style="stop-color:#7aaaff;stop-opacity:0;"
         offset="1"
         id="stop2952" />
    </linearGradient>
    <linearGradient
       inkscape:collect="always"
       id="linearGradient2921">
      <stop
         style="stop-color:#002466;stop-opacity:1"
         offset="0"
         id="stop2917" />
      <stop
         style="stop-color:#005af7;stop-opacity:1"
         offset="0.53333336"
         id="stop2925" />
      <stop
         style="stop-color:#7aaaff;stop-opacity:1"
         offset="1"
         id="stop2919" />
    </linearGradient>
    <linearGradient
       inkscape:collect="always"
       xlink:href="#linearGradient2921"
       id="linearGradient2923"
       x1="621.90173"
       y1="472.44095"
       x2="180.02419"
       y2="500.78741"
       gradientUnits="userSpaceOnUse" />
    <radialGradient
       inkscape:collect="always"
       xlink:href="#linearGradient2954"
       id="radialGradient2956"
       cx="111.64696"
       cy="167.08472"
       fx="111.64696"
       fy="167.08472"
       r="28.145824"
       gradientTransform="matrix(0.93424897,-0.21739441,0.12057854,0.51818429,-12.805929,104.77547)"
       gradientUnits="userSpaceOnUse" />
    <filter
       inkscape:collect="always"
       style="color-interpolation-filters:sRGB"
       id="filter3038"
       x="-0.047273558"
       width="1.0945472"
       y="-0.15206324"
       height="1.3041265">
      <feGaussianBlur
         inkscape:collect="always"
         stdDeviation="1.1087944"
         id="feGaussianBlur3040" />
    </filter>
  </defs>
  <sodipodi:namedview
     id="base"
     pagecolor="#ffffff"
     bordercolor="#666666"
     borderopacity="1.0"
     inkscape:pageopacity="0.0"
     inkscape:pageshadow="2"
     inkscape:zoom="1.4"
     inkscape:cx="168.10137"
     inkscape:cy="133.6484"
     inkscape:document-units="mm"
     inkscape:current-layer="layer3"
     inkscape:document-rotation="0"
     showgrid="true"
     inkscape:window-width="1920"
     inkscape:window-height="1002"
     inkscape:window-x="-8"
     inkscape:window-y="-8"
     inkscape:window-maximized="1">
    <inkscape:grid
       type="axonomgrid"
       id="grid10"
       visible="true"
       originx="-47.631201"
       originy="-85.625078" />
  </sodipodi:namedview>
  <metadata
     id="metadata5">
    <rdf:RDF>
      <cc:Work
         rdf:about="">
        <dc:format>image/svg+xml</dc:format>
        <dc:type
           rdf:resource="http://purl.org/dc/dcmitype/StillImage" />
        <dc:title />
      </cc:Work>
    </rdf:RDF>
  </metadata>
  <g
     inkscape:groupmode="layer"
     id="layer3"
     inkscape:label="haut 1"
     transform="translate(-47.631201,-85.625077)"
     style="display:inline">
    <ellipse
       style="display:inline;fill:url(#radialGradient2956);fill-opacity:1;fill-rule:evenodd;stroke:none;stroke-width:0.165;filter:url(#filter3038)"
       id="path2927"
       cx="111.64696"
       cy="167.08472"
       rx="28.145824"
       ry="8.75"
       transform="matrix(1.4337815,0,0,1.4337815,-48.430382,-90.052844)" />
  </g>
  <g
     inkscape:groupmode="layer"
     id="layer9"
     inkscape:label="fond"
     style="display:inline"
     transform="translate(-47.631201,-85.625077)"
     sodipodi:insensitive="true">
    <path
       id="path12-7"
       style="display:inline;fill:url(#linearGradient2923);fill-opacity:1;stroke:none;stroke-width:0.999999px;stroke-linecap:butt;stroke-linejoin:miter;stroke-opacity:1"
       d="m 422.08594,324.50391 c -2.3439,0.0862 -6.29083,2.36649 -12.93946,6.20507 L 196.39062,453.54297 c -14.33221,8.27472 -16.11269,9.30705 -16.33398,22.12695 -0.0314,1.81902 -0.0332,3.87254 -0.0332,6.2207 v 37.79493 c 0,2.3622 0.001,4.42864 0.0332,6.21875 0.17393,10.07622 1.33949,12.88048 8.77734,17.63281 0.0608,0.0392 0.12359,0.0795 0.18555,0.11914 0.49428,0.31356 1.02201,0.63902 1.57227,0.97266 0.21571,0.13105 0.43752,0.26859 0.66406,0.40429 1.5058,0.90086 3.19744,1.87953 5.13476,2.99805 l 163.65821,94.48828 c 2.04933,1.18318 3.84194,2.21764 5.41015,3.08594 0.007,0.004 0.0165,0.01 0.0234,0.0137 9.58937,5.31496 12.27389,5.31496 21.86328,0 0.009,-0.005 0.0221,-0.0125 0.0312,-0.0176 1.56625,-0.86736 3.35662,-1.90093 5.40235,-3.08203 L 605.53516,519.68555 c 2.04572,-1.18111 3.8368,-2.21595 5.37109,-3.13867 8.63113,-5.18399 10.48162,-7.59622 10.88086,-16.39454 0.004,-0.0896 0.01,-0.18193 0.0137,-0.27343 0.024,-0.57984 0.0411,-1.19481 0.0547,-1.83203 0.005,-0.24565 0.0134,-0.49915 0.0176,-0.75586 0.0274,-1.75641 0.0293,-3.71285 0.0293,-5.95313 v -37.79492 c 0,-2.34819 1.9e-4,-4.39976 -0.0312,-6.21875 -0.22154,-12.81977 -2.00369,-13.85224 -16.33593,-22.12695 L 441.87695,330.70898 c -6.64862,-3.83858 -10.59555,-6.11886 -12.93945,-6.20507 -3.4257,-0.12601 -3.42578,4.43382 -3.42578,15.65429 0,-11.22047 -8e-5,-15.7803 -3.42578,-15.65429 z m 3.42578,53.44921 c 0,18.89764 -6.1e-4,18.89689 16.36523,28.34571 -16.36584,-9.44878 -16.36462,-9.44878 -32.73047,0 16.36585,-9.44882 16.36524,-9.44807 16.36524,-28.34571 z"
       transform="scale(0.26458333)" />
  </g>
  <g
     inkscape:groupmode="layer"
     id="layer10"
     inkscape:label="haut"
     style="display:inline"
     transform="translate(-47.631201,-85.625077)"
     sodipodi:insensitive="true">
    <path
       style="display:inline;fill:#7aaaff;fill-opacity:1;stroke:none;stroke-width:0.264583px;stroke-linecap:butt;stroke-linejoin:miter;stroke-opacity:1"
       d="m 51.961524,125 43.301268,25 c 4.33013,2.5 4.33013,2.5 8.660278,0 l 56.29165,-32.5 c 4.33012,-2.5 4.33012,-2.5 0,-5 -20.70754,-11.95551 -29.68125,-17.136459 -43.30127,-24.999934 -4.33013,-2.499985 -4.33013,-2.499985 -8.66026,0 L 51.961524,120 c -4.330127,2.5 -4.330127,2.5 0,5 z"
       id="path12"
       sodipodi:nodetypes="ccccccccc" />
  </g>
  <g
     inkscape:groupmode="layer"
     id="layer4"
     inkscape:label="haut 2"
     style="display:inline"
     sodipodi:insensitive="true">
    <path
       style="fill:none;stroke:#ffffff;stroke-width:0.529167;stroke-linecap:butt;stroke-linejoin:miter;stroke-miterlimit:4;stroke-dasharray:none;stroke-opacity:1"
       d="m 21.985691,37.336296 29.176983,16.84534 c 2.9177,1.684534 2.9177,1.684534 5.8354,0 l 15.766845,-9.102992 7.77564,2.296278 1.732051,-1 -3.130594,-4.978097 15.786138,-9.114131 c 2.917689,-1.684534 2.917689,-1.684534 0,-3.369068 L 65.751169,12.068286 c -2.9177,-1.684533 -2.9177,-1.684533 -5.835401,0 L 21.985691,33.967228 c -2.917699,1.684533 -2.917699,1.684533 0,3.369068 z"
       id="path12-1"
       sodipodi:nodetypes="ccccccccccccc" />
    <path
       style="display:inline;fill:none;stroke:#ffffff;stroke-width:0.529167;stroke-linecap:butt;stroke-linejoin:miter;stroke-miterlimit:4;stroke-dasharray:none;stroke-opacity:1"
       d="m 25.981016,36.874956 25.980722,14.999978 c 2.598074,1.499998 2.598074,1.499998 5.196148,0 L 90.932827,32.374963 c 2.598064,-1.499998 2.598064,-1.499998 0,-2.999996 L 64.952103,14.374989 c -2.598074,-1.499997 -2.598074,-1.499997 -5.196149,0 L 25.981016,33.874961 c -2.598073,1.499996 -2.598073,1.499996 0,2.999995 z"
       id="path12-1-7"
       sodipodi:nodetypes="ccccccccc" />
  </g>
</svg>
