<?xml version="1.0" encoding="UTF-8" standalone="no"?>
<svg
   xmlns:dc="http://purl.org/dc/elements/1.1/"
   xmlns:cc="http://creativecommons.org/ns#"
   xmlns:rdf="http://www.w3.org/1999/02/22-rdf-syntax-ns#"
   xmlns:svg="http://www.w3.org/2000/svg"
   xmlns="http://www.w3.org/2000/svg"
   xmlns:sodipodi="http://sodipodi.sourceforge.net/DTD/sodipodi-0.dtd"
   xmlns:inkscape="http://www.inkscape.org/namespaces/inkscape"
   width="128.69429mm"
   height="130.34375mm"
   viewBox="0 0 128.69429 130.34375"
   version="1.1"
   id="svg8"
   inkscape:version="1.0.2 (e86c870879, 2021-01-15, custom)"
   sodipodi:docname="server_sidev1.svg">
  <defs
     id="defs2" />
  <sodipodi:namedview
     id="base"
     pagecolor="#ffffff"
     bordercolor="#666666"
     borderopacity="1.0"
     inkscape:pageopacity="0.0"
     inkscape:pageshadow="2"
     inkscape:zoom="1.4"
     inkscape:cx="151.98683"
     inkscape:cy="264.81946"
     inkscape:document-units="mm"
     inkscape:current-layer="layer1"
     inkscape:document-rotation="0"
     showgrid="true"
     inkscape:window-width="1920"
     inkscape:window-height="1002"
     inkscape:window-x="-8"
     inkscape:window-y="-8"
     inkscape:window-maximized="1">
    <inkscape:grid
       type="axonomgrid"
       id="grid10"
       visible="false"
       originx="-34.900288"
       originy="-45.720816" />
  </sodipodi:namedview>
  <metadata
     id="metadata5">
    <rdf:RDF>
      <cc:Work
         rdf:about="">
        <dc:format>image/svg+xml</dc:format>
        <dc:type
           rdf:resource="http://purl.org/dc/dcmitype/StillImage" />
        <dc:title />
      </cc:Work>
    </rdf:RDF>
  </metadata>
  <g
     inkscape:groupmode="layer"
     id="layer5"
     inkscape:label="Calque 5"
     style="display:none"
     sodipodi:insensitive="true"
     transform="translate(-34.900289,-45.720816)">
    <path
       id="path2850"
       style="fill:#333333;fill-opacity:1;fill-rule:evenodd;stroke:none;stroke-width:0.0920026;stroke-miterlimit:4;stroke-dasharray:none;stroke-opacity:1"
       d="M 151.55445,117.73747 A 58.327079,58.327079 0 0 1 93.227364,176.06456 58.327079,58.327079 0 0 1 34.900289,117.73747 58.327079,58.327079 0 0 1 93.227364,59.410423 58.327079,58.327079 0 0 1 151.55445,117.73747 Z" />
  </g>
  <g
     inkscape:groupmode="layer"
     id="layer1"
     inkscape:label="Calque 6">
    <path
       id="path12-7-0"
       style="display:inline;fill:#ffffff;stroke:#000000;stroke-width:0.169984px;stroke-linecap:butt;stroke-linejoin:miter;stroke-opacity:1"
       d="m 47.935533,74.696932 c -0.39843,0.0147 -1.06935,0.40227 -2.19951,1.05477 L 9.5708073,96.631582 c -2.4362535,1.406582 -2.7389075,1.582062 -2.7765232,3.761238 -0.0053,0.30921 -0.0057,0.65828 -0.0057,1.05742 v 6.42456 c 0,0.40154 1.7e-4,0.75281 0.0057,1.05709 0.02957,1.71281 0.2276927,2.18949 1.4920121,2.99731 0.01034,0.007 0.02101,0.0135 0.03154,0.0202 0.08402,0.0533 0.1737257,0.10863 0.2672617,0.16534 0.03667,0.0223 0.07437,0.0457 0.11288,0.0687 0.2559627,0.15313 0.5435157,0.31949 0.8728294,0.50962 l 27.8193697,16.06156 c 0.348356,0.20112 0.653076,0.37696 0.919646,0.52456 10e-4,6.4e-4 0.003,0.002 0.004,0.003 1.63005,0.90346 2.08638,0.90346 3.71642,0 0.001,-6.4e-4 0.004,-0.002 0.005,-0.003 0.26624,-0.14744 0.57057,-0.32313 0.91832,-0.5239 L 79.11877,107.87539 c 0.347737,-0.20077 0.652197,-0.37667 0.913004,-0.53352 1.467141,-0.8812 1.781701,-1.29124 1.849561,-2.78682 6.4e-4,-0.0152 0.002,-0.0309 0.003,-0.0464 0.004,-0.0986 0.007,-0.2031 0.009,-0.31142 6.4e-4,-0.0418 0.003,-0.0848 0.003,-0.12849 0.005,-0.29855 0.005,-0.63112 0.005,-1.01193 v -6.424558 c 0,-0.39915 3e-5,-0.74789 -0.005,-1.05709 -0.0377,-2.17916 -0.34059,-2.35467 -2.776835,-3.76124 L 51.299603,75.752332 c -1.13016,-0.6525 -1.80107,-1.04011 -2.1995,-1.05477 -0.58232,-0.0214 -0.58233,0.75368 -0.58233,2.66099 0,-1.90731 -2e-5,-2.68241 -0.58233,-2.66099 z m 0.58233,9.08555 c 0,3.2123 -1.1e-4,3.21217 2.78183,4.81833 -2.78194,-1.60615 -2.78173,-1.60615 -5.56367,0 2.78194,-1.60616 2.78184,-1.60603 2.78184,-4.81833 z" />
    <path
       style="display:inline;fill:none;stroke:#000000;stroke-width:0.169984px;stroke-linecap:butt;stroke-linejoin:miter;stroke-opacity:1"
       d="m 9.5707043,106.26856 c 0,-3.2123 0,-3.2123 5.5638787,0 l 5.56388,3.21231 c 5.563884,3.21231 5.563884,3.21231 5.563884,6.42462 0,3.2123 0,3.2123 -5.563884,0 l -5.56388,-3.21231 c -5.5638787,-3.21231 -5.5638787,-3.21231 -5.5638787,-6.42462 z"
       id="path3497-5"
       sodipodi:nodetypes="ccccccc" />
    <path
       style="display:inline;fill:none;stroke:#000000;stroke-width:0.169984px;stroke-linecap:butt;stroke-linejoin:miter;stroke-opacity:1"
       d="m 34.608167,117.51164 c 2.78194,1.60615 2.78194,1.60615 2.78194,4.81846 0,3.21231 0,3.21231 -2.78194,1.60616 -2.78194,-1.60616 -2.78194,-1.60616 -2.78194,-4.81847 0,-3.2123 0,-3.2123 2.78194,-1.60615 z"
       id="path3511-1"
       sodipodi:nodetypes="ccccc" />
    <path
       style="display:inline;fill:#ffffff;stroke:#000000;stroke-width:0.169984px;stroke-linecap:butt;stroke-linejoin:miter;stroke-opacity:1"
       d="M 9.5707043,99.843954 37.390097,115.90549 c 2.781946,1.60615 2.781946,1.60615 5.563896,0 L 79.11919,95.025492 c 2.781915,-1.60616 2.781915,-1.60616 0,-3.21231 -13.303777,-7.68096 -19.069037,-11.00952 -27.819377,-16.06149 -2.78194,-1.60615 -2.78194,-1.60615 -5.56388,0 L 9.5707043,96.631642 c -2.7819382,1.606152 -2.7819382,1.606152 0,3.212312 z"
       id="path12-75"
       sodipodi:nodetypes="ccccccccc" />
    <path
       id="path12-7-0-9-1"
       style="display:inline;fill:#ffffff;stroke:#000000;stroke-width:0.169984px;stroke-linecap:butt;stroke-linejoin:miter;stroke-opacity:1"
       d="m 47.935533,57.763498 c -0.39843,0.0147 -1.06935,0.402267 -2.19951,1.054764 L 9.5708073,79.698142 c -2.4362535,1.40658 -2.7389075,1.58206 -2.7765232,3.76124 -0.0053,0.30921 -0.0057,0.65828 -0.0057,1.05742 v 6.42456 c 0,0.40154 1.7e-4,0.75281 0.0057,1.05709 0.02957,1.71281 0.2276927,2.18949 1.4920121,2.99731 0.01034,0.007 0.02101,0.0135 0.03154,0.0202 0.08402,0.0533 0.1737257,0.10863 0.2672617,0.16534 0.03667,0.0223 0.07437,0.0457 0.11288,0.0687 0.2559627,0.15313 0.5435157,0.31949 0.8728294,0.50962 L 37.390177,111.82118 c 0.348356,0.20112 0.653076,0.37696 0.919646,0.52456 10e-4,6.4e-4 0.003,0.002 0.004,0.003 1.63005,0.90346 2.08638,0.90346 3.71642,0 0.001,-6.4e-4 0.004,-0.002 0.005,-0.003 0.26624,-0.14744 0.57057,-0.32313 0.91832,-0.5239 L 79.11877,90.941952 c 0.347737,-0.20077 0.652197,-0.37667 0.913004,-0.53352 1.467141,-0.8812 1.781701,-1.29124 1.849561,-2.78682 6.4e-4,-0.0152 0.002,-0.0309 0.003,-0.0464 0.004,-0.0986 0.007,-0.2031 0.009,-0.31142 6.4e-4,-0.0418 0.003,-0.0848 0.003,-0.12849 0.005,-0.29855 0.005,-0.63112 0.005,-1.01193 v -6.42456 c 0,-0.39915 3e-5,-0.74789 -0.005,-1.05709 -0.0377,-2.17916 -0.34059,-2.35467 -2.776835,-3.76124 L 51.299603,58.818892 c -1.13016,-0.652497 -1.80107,-1.040104 -2.1995,-1.054764 -0.58232,-0.0214 -0.58233,0.753677 -0.58233,2.660984 0,-1.907307 -2e-5,-2.682404 -0.58233,-2.660984 z m 0.58233,9.085544 c 0,3.2123 -1.1e-4,3.21217 2.78183,4.81833 -2.78194,-1.60615 -2.78173,-1.60615 -5.56367,0 2.78194,-1.60616 2.78184,-1.60603 2.78184,-4.81833 z" />
    <path
       style="display:inline;fill:none;stroke:#000000;stroke-width:0.169984px;stroke-linecap:butt;stroke-linejoin:miter;stroke-opacity:1"
       d="m 9.5707043,89.335122 c 0,-3.2123 0,-3.2123 5.5638787,0 l 5.56388,3.21231 c 5.563884,3.21231 5.563884,3.21231 5.563884,6.424622 0,3.212296 0,3.212296 -5.563884,0 l -5.56388,-3.212312 c -5.5638787,-3.21231 -5.5638787,-3.21231 -5.5638787,-6.42462 z"
       id="path3497-5-0-8"
       sodipodi:nodetypes="ccccccc" />
    <path
       style="display:inline;fill:none;stroke:#000000;stroke-width:0.169984px;stroke-linecap:butt;stroke-linejoin:miter;stroke-opacity:1"
       d="m 34.608167,100.5782 c 2.78194,1.60615 2.78194,1.60615 2.78194,4.81846 0,3.21231 0,3.21231 -2.78194,1.60616 -2.78194,-1.60616 -2.78194,-1.60616 -2.78194,-4.81847 0,-3.212296 0,-3.212296 2.78194,-1.60615 z"
       id="path3511-1-80-1"
       sodipodi:nodetypes="ccccc" />
    <path
       style="display:inline;fill:#ffffff;stroke:#000000;stroke-width:0.169984px;stroke-linecap:butt;stroke-linejoin:miter;stroke-opacity:1"
       d="M 9.5707043,82.910512 37.390097,98.972054 c 2.781946,1.606146 2.781946,1.606146 5.563896,0 L 79.11919,78.092052 c 2.781915,-1.60616 2.781915,-1.60616 0,-3.21231 -13.303777,-7.68096 -19.069037,-11.00952 -27.819377,-16.06149 -2.78194,-1.606141 -2.78194,-1.606141 -5.56388,0 L 9.5707043,79.698202 c -2.7819382,1.60615 -2.7819382,1.60615 0,3.21231 z"
       id="path12-75-3-2"
       sodipodi:nodetypes="ccccccccc" />
    <path
       id="path12-7-0-9"
       style="display:inline;fill:#ffffff;stroke:#000000;stroke-width:0.169984px;stroke-linecap:butt;stroke-linejoin:miter;stroke-opacity:1"
       d="m 47.935533,40.300987 c -0.39843,0.0147 -1.06935,0.402267 -2.19951,1.054764 L 9.5708073,62.235532 c -2.4362535,1.40658 -2.7389075,1.58206 -2.7765232,3.76124 -0.0053,0.30921 -0.0057,0.65828 -0.0057,1.05742 v 6.42456 c 0,0.40154 1.7e-4,0.75281 0.0057,1.05709 0.02957,1.71281 0.2276927,2.18949 1.4920121,2.99731 0.01034,0.007 0.02101,0.0135 0.03154,0.0202 0.08402,0.0533 0.1737257,0.10863 0.2672617,0.16534 0.03667,0.0223 0.07437,0.0457 0.11288,0.0687 0.2559627,0.15313 0.5435157,0.31949 0.8728294,0.50962 l 27.8193697,16.06156 c 0.348356,0.20112 0.653076,0.37696 0.919646,0.52456 10e-4,6.4e-4 0.003,0.002 0.004,0.003 1.63005,0.90346 2.08638,0.90346 3.71642,0 0.001,-6.4e-4 0.004,-0.002 0.005,-0.003 0.26624,-0.14744 0.57057,-0.32313 0.91832,-0.5239 L 79.11877,73.479342 c 0.347737,-0.20077 0.652197,-0.37667 0.913004,-0.53352 1.467141,-0.8812 1.781701,-1.29124 1.849561,-2.78682 6.4e-4,-0.0152 0.002,-0.0309 0.003,-0.0464 0.004,-0.0986 0.007,-0.2031 0.009,-0.31142 6.4e-4,-0.0418 0.003,-0.0848 0.003,-0.12849 0.005,-0.29855 0.005,-0.63112 0.005,-1.01193 v -6.42456 c 0,-0.39915 3e-5,-0.74789 -0.005,-1.05709 -0.0377,-2.17916 -0.34059,-2.35467 -2.776835,-3.761231 l -27.819897,-16.0615 c -1.13016,-0.652497 -1.80107,-1.040104 -2.1995,-1.054764 -0.58232,-0.0214 -0.58233,0.753677 -0.58233,2.660975 0,-1.907298 -2e-5,-2.682395 -0.58233,-2.660975 z m 0.58233,9.085499 c 0,3.212282 -1.1e-4,3.212152 2.78183,4.818303 -2.78194,-1.606141 -2.78173,-1.606141 -5.56367,0 2.78194,-1.606151 2.78184,-1.606021 2.78184,-4.818303 z" />
    <path
       style="display:inline;fill:none;stroke:#000000;stroke-width:0.169984px;stroke-linecap:butt;stroke-linejoin:miter;stroke-opacity:1"
       d="m 9.5707043,71.872512 c 0,-3.2123 0,-3.2123 5.5638787,0 l 5.56388,3.21231 c 5.563884,3.21231 5.563884,3.21231 5.563884,6.42462 0,3.2123 0,3.2123 -5.563884,0 l -5.56388,-3.21231 c -5.5638787,-3.21231 -5.5638787,-3.21231 -5.5638787,-6.42462 z"
       id="path3497-5-0"
       sodipodi:nodetypes="ccccccc" />
    <path
       style="display:inline;fill:none;stroke:#000000;stroke-width:0.169984px;stroke-linecap:butt;stroke-linejoin:miter;stroke-opacity:1"
       d="m 34.608167,83.115592 c 2.78194,1.60615 2.78194,1.60615 2.78194,4.81846 0,3.21231 0,3.21231 -2.78194,1.60616 -2.78194,-1.60616 -2.78194,-1.60616 -2.78194,-4.81847 0,-3.2123 0,-3.2123 2.78194,-1.60615 z"
       id="path3511-1-80"
       sodipodi:nodetypes="ccccc" />
    <path
       style="display:inline;fill:#ffffff;stroke:#000000;stroke-width:0.169984px;stroke-linecap:butt;stroke-linejoin:miter;stroke-opacity:1"
       d="m 9.5707043,65.447902 27.8193927,16.06154 c 2.781946,1.60615 2.781946,1.60615 5.563896,0 l 36.165197,-20.88 c 2.781915,-1.60616 2.781915,-1.60616 0,-3.212301 -13.303777,-7.680918 -19.069037,-11.009457 -27.819377,-16.0614 -2.78194,-1.606141 -2.78194,-1.606141 -5.56388,0 L 9.5707043,62.235592 c -2.7819382,1.60615 -2.7819382,1.60615 0,3.21231 z"
       id="path12-75-3"
       sodipodi:nodetypes="ccccccccc" />
    <path
       id="path12-7-0-8"
       style="display:inline;fill:#ffffff;stroke:#000000;stroke-width:0.169984px;stroke-linecap:butt;stroke-linejoin:miter;stroke-opacity:1"
       d="m 47.935533,22.309401 c -0.39843,0.0147 -1.06935,0.40227 -2.19951,1.054769 L 9.5708073,44.244049 c -2.4362535,1.40658 -2.7389075,1.58206 -2.7765232,3.76124 -0.0053,0.30921 -0.0057,0.65828 -0.0057,1.05742 v 6.424563 c 0,0.40154 1.7e-4,0.75281 0.0057,1.05709 0.02957,1.71281 0.2276927,2.18949 1.4920121,2.99731 0.01034,0.007 0.02101,0.0135 0.03154,0.0202 0.08402,0.0533 0.1737257,0.10863 0.2672617,0.16534 0.03667,0.0223 0.07437,0.0457 0.11288,0.0687 0.2559627,0.15313 0.5435157,0.31949 0.8728294,0.50962 L 37.390177,76.367017 c 0.348356,0.20112 0.653076,0.37696 0.919646,0.524557 10e-4,6.4e-4 0.003,0.002 0.004,0.003 1.63005,0.903457 2.08638,0.903457 3.71642,0 0.001,-6.4e-4 0.004,-0.002 0.005,-0.003 0.26624,-0.147437 0.57057,-0.323127 0.91832,-0.523897 L 79.11877,55.487862 c 0.347737,-0.20077 0.652197,-0.37667 0.913004,-0.53352 1.467141,-0.8812 1.781701,-1.29124 1.849561,-2.78682 6.4e-4,-0.0152 0.002,-0.0309 0.003,-0.0464 0.004,-0.0986 0.007,-0.2031 0.009,-0.31142 6.4e-4,-0.0418 0.003,-0.0848 0.003,-0.12849 0.005,-0.29855 0.005,-0.63112 0.005,-1.01193 v -6.424563 c 0,-0.39915 3e-5,-0.74789 -0.005,-1.05709 -0.0377,-2.17916 -0.34059,-2.35467 -2.776835,-3.76124 L 51.299603,23.3648 c -1.13016,-0.652499 -1.80107,-1.040109 -2.1995,-1.054769 -0.58232,-0.0214 -0.58233,0.753679 -0.58233,2.660988 0,-1.907309 -2e-5,-2.682408 -0.58233,-2.660988 z m 0.58233,9.085548 c 0,3.2123 -1.1e-4,3.21217 2.78183,4.81833 -2.78194,-1.60615 -2.78173,-1.60615 -5.56367,0 2.78194,-1.60616 2.78184,-1.60603 2.78184,-4.81833 z" />
    <path
       style="display:inline;fill:none;stroke:#000000;stroke-width:0.169984px;stroke-linecap:butt;stroke-linejoin:miter;stroke-opacity:1"
       d="m 9.5707043,53.881032 c 0,-3.2123 0,-3.2123 5.5638787,0 l 5.56388,3.21231 c 5.563884,3.21231 5.563884,3.21231 5.563884,6.42462 0,3.212282 0,3.212282 -5.563884,0 l -5.56388,-3.21231 c -5.5638787,-3.21231 -5.5638787,-3.21231 -5.5638787,-6.42462 z"
       id="path3497-5-06"
       sodipodi:nodetypes="ccccccc" />
    <path
       style="display:inline;fill:none;stroke:#000000;stroke-width:0.169984px;stroke-linecap:butt;stroke-linejoin:miter;stroke-opacity:1"
       d="m 34.608167,65.124103 c 2.78194,1.606141 2.78194,1.606141 2.78194,4.81843 0,3.212292 0,3.212292 -2.78194,1.606151 -2.78194,-1.606151 -2.78194,-1.606151 -2.78194,-4.81844 0,-3.212282 0,-3.212282 2.78194,-1.606141 z"
       id="path3511-1-3"
       sodipodi:nodetypes="ccccc" />
    <path
       style="display:inline;fill:#ffffff;stroke:#000000;stroke-width:0.169984px;stroke-linecap:butt;stroke-linejoin:miter;stroke-opacity:1"
       d="M 9.5707043,47.456419 37.390097,63.517962 c 2.781946,1.606141 2.781946,1.606141 5.563896,0 L 79.11919,42.637959 c 2.781915,-1.60616 2.781915,-1.60616 0,-3.21231 -13.303777,-7.68096 -19.069037,-11.00952 -27.819377,-16.061489 -2.78194,-1.606149 -2.78194,-1.606149 -5.56388,0 L 9.5707043,44.244109 c -2.7819382,1.60615 -2.7819382,1.60615 0,3.21231 z"
       id="path12-75-6"
       sodipodi:nodetypes="ccccccccc" />
    <path
       id="path12-7-0-9-1-9"
       style="display:inline;fill:#ffffff;stroke:#000000;stroke-width:0.169984px;stroke-linecap:butt;stroke-linejoin:miter;stroke-opacity:1"
       d="m 47.935533,5.3759762 c -0.39843,0.0147 -1.06935,0.4022671 -2.19951,1.0547634 L 9.5708073,27.310609 c -2.4362535,1.40658 -2.7389075,1.58206 -2.7765232,3.76124 -0.0053,0.30921 -0.0057,0.65828 -0.0057,1.05742 v 6.42456 c 0,0.40154 1.7e-4,0.75281 0.0057,1.05709 0.02957,1.71281 0.2276927,2.18949 1.4920121,2.99731 0.01034,0.007 0.02101,0.0135 0.03154,0.0202 0.08402,0.0533 0.1737257,0.10863 0.2672617,0.16534 0.03667,0.0223 0.07437,0.0457 0.11288,0.0687 0.2559627,0.15313 0.5435157,0.31949 0.8728294,0.50962 L 37.390177,59.433652 c 0.348356,0.20112 0.653076,0.37696 0.919646,0.52456 10e-4,6.4e-4 0.003,0.002 0.004,0.003 1.63005,0.90346 2.08638,0.90346 3.71642,0 0.001,-6.4e-4 0.004,-0.002 0.005,-0.003 0.26624,-0.14744 0.57057,-0.32313 0.91832,-0.5239 L 79.11877,38.554419 c 0.347737,-0.20077 0.652197,-0.37667 0.913004,-0.53352 1.467141,-0.8812 1.781701,-1.29124 1.849561,-2.78682 6.4e-4,-0.0152 0.002,-0.0309 0.003,-0.0464 0.004,-0.0986 0.007,-0.2031 0.009,-0.31142 6.4e-4,-0.0418 0.003,-0.0848 0.003,-0.12849 0.005,-0.29855 0.005,-0.63112 0.005,-1.01193 v -6.42456 c 0,-0.39915 3e-5,-0.74789 -0.005,-1.05709 -0.0377,-2.179159 -0.34059,-2.354669 -2.776835,-3.761238 L 51.299603,6.4313696 c -1.13016,-0.6524963 -1.80107,-1.0401034 -2.1995,-1.0547634 -0.58232,-0.0214 -0.58233,0.7536768 -0.58233,2.6609828 0,-1.907306 -2e-5,-2.6824028 -0.58233,-2.6609828 z m 0.58233,9.0855388 c 0,3.212298 -1.1e-4,3.212168 2.78183,4.818327 -2.78194,-1.606149 -2.78173,-1.606149 -5.56367,0 2.78194,-1.606159 2.78184,-1.606029 2.78184,-4.818327 z" />
    <path
       style="display:inline;fill:none;stroke:#000000;stroke-width:0.169984px;stroke-linecap:butt;stroke-linejoin:miter;stroke-opacity:1"
       d="m 9.5707043,36.947589 c 0,-3.2123 0,-3.2123 5.5638787,0 l 5.56388,3.21231 c 5.563884,3.21231 5.563884,3.21231 5.563884,6.42462 0,3.2123 0,3.2123 -5.563884,0 l -5.56388,-3.21231 c -5.5638787,-3.21231 -5.5638787,-3.21231 -5.5638787,-6.42462 z"
       id="path3497-5-0-8-9"
       sodipodi:nodetypes="ccccccc" />
    <path
       style="display:inline;fill:none;stroke:#000000;stroke-width:0.169984px;stroke-linecap:butt;stroke-linejoin:miter;stroke-opacity:1"
       d="m 34.608167,48.190669 c 2.78194,1.60615 2.78194,1.60615 2.78194,4.818463 0,3.21231 0,3.21231 -2.78194,1.60616 -2.78194,-1.60616 -2.78194,-1.60616 -2.78194,-4.818473 0,-3.2123 0,-3.2123 2.78194,-1.60615 z"
       id="path3511-1-80-1-9"
       sodipodi:nodetypes="ccccc" />
    <path
       style="display:inline;fill:#ffffff;stroke:#000000;stroke-width:0.169984px;stroke-linecap:butt;stroke-linejoin:miter;stroke-opacity:1"
       d="m 9.5707043,30.522979 27.8193927,16.06154 c 2.781946,1.60615 2.781946,1.60615 5.563896,0 l 36.165197,-20.88 c 2.781915,-1.606159 2.781915,-1.606159 0,-3.212308 C 65.815413,14.811255 60.050153,11.482697 51.299813,6.4307296 c -2.78194,-1.6061396 -2.78194,-1.6061396 -5.56388,0 L 9.5707043,27.310669 c -2.7819382,1.60615 -2.7819382,1.60615 0,3.21231 z"
       id="path12-75-3-2-4"
       sodipodi:nodetypes="ccccccccc" />
  </g>
</svg>
