<?xml version="1.0" encoding="UTF-8" standalone="no"?>
<!-- Created with Inkscape (http://www.inkscape.org/) -->

<svg
   xmlns:dc="http://purl.org/dc/elements/1.1/"
   xmlns:cc="http://creativecommons.org/ns#"
   xmlns:rdf="http://www.w3.org/1999/02/22-rdf-syntax-ns#"
   xmlns:svg="http://www.w3.org/2000/svg"
   xmlns="http://www.w3.org/2000/svg"
   xmlns:sodipodi="http://sodipodi.sourceforge.net/DTD/sodipodi-0.dtd"
   xmlns:inkscape="http://www.inkscape.org/namespaces/inkscape"
   width="123.38057mm"
   height="131.55724mm"
   viewBox="0 0 123.38057 131.55724"
   version="1.1"
   id="svg8"
   sodipodi:docname="dessin.svg"
   inkscape:version="0.92.4 (5da689c313, 2019-01-14)">
  <defs
     id="defs2">
    <inkscape:path-effect
       effect="powerstroke"
       id="path-effect3938"
       is_visible="true"
       offset_points="0,0.13229166"
       sort_points="true"
       interpolator_type="CubicBezierJohan"
       interpolator_beta="0.2"
       start_linecap_type="zerowidth"
       linejoin_type="extrp_arc"
       miter_limit="4"
       end_linecap_type="zerowidth" />
    <inkscape:path-effect
       effect="powerstroke"
       id="path-effect3934"
       is_visible="true"
       offset_points="0,0.13229166"
       sort_points="true"
       interpolator_type="CubicBezierJohan"
       interpolator_beta="0.2"
       start_linecap_type="zerowidth"
       linejoin_type="extrp_arc"
       miter_limit="4"
       end_linecap_type="zerowidth" />
    <inkscape:path-effect
       effect="powerstroke"
       id="path-effect3930"
       is_visible="true"
       offset_points="0,0.13229166"
       sort_points="true"
       interpolator_type="CubicBezierJohan"
       interpolator_beta="0.2"
       start_linecap_type="zerowidth"
       linejoin_type="extrp_arc"
       miter_limit="4"
       end_linecap_type="zerowidth" />
    <inkscape:path-effect
       effect="powerstroke"
       id="path-effect3926"
       is_visible="true"
       offset_points="0,0.13229166"
       sort_points="true"
       interpolator_type="CubicBezierJohan"
       interpolator_beta="0.2"
       start_linecap_type="zerowidth"
       linejoin_type="extrp_arc"
       miter_limit="4"
       end_linecap_type="zerowidth" />
    <inkscape:path-effect
       effect="powerstroke"
       id="path-effect3922"
       is_visible="true"
       offset_points="0,0.13229166"
       sort_points="true"
       interpolator_type="CubicBezierJohan"
       interpolator_beta="0.2"
       start_linecap_type="zerowidth"
       linejoin_type="extrp_arc"
       miter_limit="4"
       end_linecap_type="zerowidth" />
    <inkscape:path-effect
       effect="powerstroke"
       id="path-effect3908"
       is_visible="true"
       offset_points="1,0.13229166"
       sort_points="true"
       interpolator_type="CubicBezierJohan"
       interpolator_beta="0.2"
       start_linecap_type="zerowidth"
       linejoin_type="extrp_arc"
       miter_limit="4"
       end_linecap_type="zerowidth" />
    <inkscape:path-effect
       effect="powerstroke"
       id="path-effect3904"
       is_visible="true"
       offset_points="1,0.13229166"
       sort_points="true"
       interpolator_type="CubicBezierJohan"
       interpolator_beta="0.2"
       start_linecap_type="zerowidth"
       linejoin_type="extrp_arc"
       miter_limit="4"
       end_linecap_type="zerowidth" />
    <inkscape:path-effect
       effect="powerstroke"
       id="path-effect3829"
       is_visible="true"
       offset_points="2,0.13229166"
       sort_points="true"
       interpolator_type="CubicBezierJohan"
       interpolator_beta="0.2"
       start_linecap_type="zerowidth"
       linejoin_type="extrp_arc"
       miter_limit="4"
       end_linecap_type="zerowidth" />
    <inkscape:path-effect
       effect="powerstroke"
       id="path-effect3814"
       is_visible="true"
       offset_points="0,0.13229166"
       sort_points="true"
       interpolator_type="CubicBezierJohan"
       interpolator_beta="0.2"
       start_linecap_type="zerowidth"
       linejoin_type="extrp_arc"
       miter_limit="4"
       end_linecap_type="zerowidth" />
    <inkscape:path-effect
       effect="powerstroke"
       id="path-effect3810"
       is_visible="true"
       offset_points="0,0.13229166"
       sort_points="true"
       interpolator_type="CubicBezierJohan"
       interpolator_beta="0.2"
       start_linecap_type="zerowidth"
       linejoin_type="extrp_arc"
       miter_limit="4"
       end_linecap_type="zerowidth" />
    <inkscape:path-effect
       effect="powerstroke"
       id="path-effect3806"
       is_visible="true"
       offset_points="0,0.13229166"
       sort_points="true"
       interpolator_type="CubicBezierJohan"
       interpolator_beta="0.2"
       start_linecap_type="zerowidth"
       linejoin_type="extrp_arc"
       miter_limit="4"
       end_linecap_type="zerowidth" />
    <inkscape:path-effect
       effect="powerstroke"
       id="path-effect3790"
       is_visible="true"
       offset_points="1,0.13229166"
       sort_points="true"
       interpolator_type="CubicBezierJohan"
       interpolator_beta="0.2"
       start_linecap_type="zerowidth"
       linejoin_type="extrp_arc"
       miter_limit="4"
       end_linecap_type="zerowidth" />
    <inkscape:path-effect
       effect="powerstroke"
       id="path-effect3786"
       is_visible="true"
       offset_points="1,0.13229166"
       sort_points="true"
       interpolator_type="CubicBezierJohan"
       interpolator_beta="0.2"
       start_linecap_type="zerowidth"
       linejoin_type="extrp_arc"
       miter_limit="4"
       end_linecap_type="zerowidth" />
  </defs>
  <sodipodi:namedview
     id="base"
     pagecolor="#ffffff"
     bordercolor="#666666"
     borderopacity="1.0"
     inkscape:pageopacity="0.0"
     inkscape:pageshadow="2"
     inkscape:zoom="0.7"
     inkscape:cx="339.47438"
     inkscape:cy="360.20089"
     inkscape:document-units="mm"
     inkscape:current-layer="layer5"
     showgrid="false"
     inkscape:window-width="1920"
     inkscape:window-height="1017"
     inkscape:window-x="-8"
     inkscape:window-y="-8"
     inkscape:window-maximized="1" />
  <metadata
     id="metadata5">
    <rdf:RDF>
      <cc:Work
         rdf:about="">
        <dc:format>image/svg+xml</dc:format>
        <dc:type
           rdf:resource="http://purl.org/dc/dcmitype/StillImage" />
        <dc:title></dc:title>
      </cc:Work>
    </rdf:RDF>
  </metadata>
  <g
     inkscape:groupmode="layer"
     id="layer5"
     inkscape:label="COUP"
     style="display:inline"
     transform="translate(-90.975558,-49.850157)">
    <path
       style="fill:#000000;stroke:#000000;stroke-width:0.26458332px;stroke-linecap:butt;stroke-linejoin:miter;stroke-opacity:1"
       d="m 119.62946,136.01116 c 0,0 -9.92187,9.16593 -23.529014,11.33929 -13.607145,2.17336 4.913684,22.67857 4.913684,22.67857 l 18.61533,9.63839 45.26265,1.6064 c 0,0 54.99554,-32.69494 48.85342,-34.77381 -6.14211,-2.07887 -29.38764,-9.82738 -29.38764,-9.82738 l -5.29167,-1.13393"
       id="path5031"
       inkscape:connector-curvature="0" />
  </g>
  <g
     inkscape:groupmode="layer"
     id="layer15"
     inkscape:label="BARBE COU"
     style="display:inline"
     transform="translate(-90.975558,-49.850157)" />
  <g
     inkscape:groupmode="layer"
     id="layer3"
     inkscape:label="CONTOUR TETE 1"
     style="display:inline"
     transform="translate(-90.975558,-49.850157)" />
  <g
     inkscape:groupmode="layer"
     id="layer16"
     inkscape:label="BARBE MACHOIR"
     style="display:inline"
     transform="translate(-90.975558,-49.850157)" />
  <g
     inkscape:groupmode="layer"
     id="layer10"
     inkscape:label="NEZ"
     style="display:inline"
     transform="translate(-90.975558,-49.850157)" />
  <g
     inkscape:groupmode="layer"
     id="layer13"
     inkscape:label="YEUXS"
     style="display:inline"
     transform="translate(-90.975558,-49.850157)" />
  <g
     inkscape:groupmode="layer"
     id="layer7"
     inkscape:label="BOUCHE"
     style="display:inline"
     transform="translate(-90.975558,-49.850157)" />
  <g
     inkscape:groupmode="layer"
     id="layer11"
     inkscape:label="OEIL GAUCHE"
     style="display:inline"
     transform="translate(-90.975558,-49.850157)" />
  <g
     inkscape:groupmode="layer"
     id="layer12"
     inkscape:label="SUR OUILS"
     style="display:inline"
     transform="translate(-90.975558,-49.850157)" />
  <g
     inkscape:groupmode="layer"
     id="layer14"
     inkscape:label="OMBRES NEZ"
     style="display:inline"
     transform="translate(-90.975558,-49.850157)" />
  <g
     inkscape:groupmode="layer"
     id="layer2"
     inkscape:label="OREILLE GAUCHE"
     style="display:inline"
     transform="translate(-90.975558,-49.850157)" />
  <g
     inkscape:groupmode="layer"
     id="layer4"
     inkscape:label="OREILLE DROITE"
     style="display:inline"
     transform="translate(-90.975558,-49.850157)" />
  <g
     inkscape:groupmode="layer"
     id="layer9"
     inkscape:label="SOURCIL DROIT"
     style="display:inline"
     transform="translate(-90.975558,-49.850157)" />
  <g
     inkscape:groupmode="layer"
     id="layer8"
     inkscape:label="SOURCIL GAUCHE"
     style="display:inline"
     transform="translate(-90.975558,-49.850157)">
    <path
       style="display:inline;fill:#ffffff;stroke:#000000;stroke-width:0.26458332px;stroke-linecap:butt;stroke-linejoin:miter;stroke-opacity:1"
       d="m 118.37447,130.52628 c -0.0176,0.3731 2.99336,16.29187 2.99336,16.29187 0,0 -0.97484,7.93536 2.69071,12.55325 3.66555,4.61787 7.90198,9.88187 9.2441,10.60317 1.34212,0.7213 5.34594,2.98287 7.03116,3.40621 1.68521,0.42334 7.48701,2.17426 8.39101,1.9715 0.90399,-0.20274 8.28638,-3.81294 9.55352,-4.54903 1.26713,-0.73608 9.22816,-6.40708 10.10466,-7.23335 0.87652,-0.82627 7.91366,-7.84207 9.25358,-10.37858 1.33993,-2.53651 6.46434,-13.59408 6.72741,-15.17914 0.26307,-1.58506 -8.5211,-3.33876 -11.32559,-4.26051 -2.80449,-0.92177 -8.23572,-2.34711 -8.83167,-2.58756 -0.3354,-1.51751 -1.06617,-6.07502 -0.32228,-7.96052 -1.663,3.04481 -4.10333,9.43654 -9.37656,13.43605 -5.27324,3.99951 -12.57607,10.84772 -23.82261,3.69321 -11.24654,-7.15451 -12.08911,-10.01597 -12.31218,-10.30992 -0.22308,-0.29394 10e-4,0.50334 10e-4,0.50334 z"
       id="path3755"
       inkscape:connector-curvature="0" />
    <path
       style="display:inline;fill:#b3b3b3;stroke:#000000;stroke-width:0.26458332px;stroke-linecap:butt;stroke-linejoin:miter;stroke-opacity:1"
       d="m 118.37447,130.52628 c 0,0 8.5817,10.83675 9.28257,14.10191 0.70087,3.26516 2.22299,10.11421 7.54193,11.43916 5.31892,1.32495 12.50079,0.46154 14.74622,-2.12341 2.24544,-2.58495 6.46021,-9.07932 6.4251,-12.28776 -0.0351,-3.20843 4.04115,-15.77875 7.51415,-18.45259 -4.60188,4.578 -16.08279,34.74278 -45.50997,7.32269 z"
       id="path3945"
       inkscape:connector-curvature="0" />
    <path
       style="display:inline;fill:#ffffff;stroke:#000000;stroke-width:0.26458332px;stroke-linecap:butt;stroke-linejoin:miter;stroke-opacity:1"
       d="m 108.3667,92.488252 c 0,0 -1.20592,-11.113244 -0.29146,-16.11383 0.91447,-5.000575 1.88411,-10.982745 5.50287,-14.776095 3.61876,-3.79336 9.89682,-7.075629 14.64977,-9.098484 4.75294,-2.022856 11.6994,-3.299287 17.2909,-1.974099 5.59152,1.325182 9.05706,2.502443 13.79189,6.647146 4.73485,4.144708 9.02386,9.180832 9.26111,16.024524 0.23724,6.843693 0.21183,10.815175 -0.0938,12.287547 -0.30565,1.472374 -0.66658,5.263529 -0.5892,7.750095 0.0774,2.486567 0.19984,5.223547 0.002,6.823644 -0.19797,1.60008 -1.96902,8.52873 -2.16454,10.71228 -0.19552,2.18354 -0.023,5.00066 -0.62426,8.05057 -0.60128,3.04993 -1.7835,6.24002 -4.7237,10.36148 -2.94018,4.12144 -7.00982,9.42222 -10.51071,11.21983 -3.50088,1.7976 -9.31572,5.59826 -17.13557,1.15277 -7.81984,-4.44549 -9.40985,-5.42974 -12.99531,-9.65198 -3.58545,-4.22222 -6.00396,-8.89508 -6.9927,-12.92925 -0.98873,-4.03418 -3.16903,-12.11508 -3.40657,-15.83868 -0.23754,-3.7236 -1.2761,-10.512278 -0.97059,-10.647468 z"
       id="path3730-2"
       inkscape:connector-curvature="0" />
    <path
       style="display:inline;fill:#cccccc;stroke:none;stroke-width:0.26458332px;stroke-linecap:butt;stroke-linejoin:miter;stroke-opacity:1"
       d="m 109.25344,100.42378 c 6.21733,12.97596 3.97917,13.42904 11.62833,14.32216 7.64916,0.89314 10.43998,-1.95381 13.19522,-2.96638 2.75524,-1.01255 4.96189,0.0337 6.36014,0.59555 1.77622,-0.33589 3.01074,-1.28131 4.78842,-0.57995 1.77767,0.70135 4.29186,0.53912 7.24992,1.8207 1.62172,2.21701 4.41302,2.06034 6.78289,2.06409 0,0 2.81859,-0.13457 4.6605,-4.75228 1.84192,-4.6177 3.62161,-9.76739 3.62161,-9.76739 0,0 -2.20574,17.54361 -2.43618,18.24473 -0.23043,0.70112 -2.34943,6.31509 -2.66499,6.79083 -0.31556,0.47575 -7.12255,9.91051 -7.41054,10.11833 -0.288,0.20781 -9.71928,9.72245 -18.25296,7.03226 -8.53367,-2.69019 -17.04924,-11.54795 -17.04924,-11.54795 0,0 -3.54543,-3.80154 -5.16018,-7.94595 -1.61474,-4.14442 -3.73746,-12.17773 -3.73746,-12.17773 0,0 -2.48241,-17.613984 -2.46222,-19.186548 0.0202,-1.572561 0.88674,7.935528 0.88674,7.935528 z"
       id="path3950"
       inkscape:connector-curvature="0"
       sodipodi:nodetypes="ccccccscccccsccccc" />
    <path
       style="display:inline;fill:#000000;fill-rule:nonzero;stroke:none;stroke-width:0.26458332px;stroke-linecap:butt;stroke-linejoin:miter;stroke-opacity:1"
       d="m 143.44196,110.30878 c 0,0 0.53242,-0.17052 1.69973,-1.25185 0.45031,-0.41713 0.86885,-0.89129 1.18251,-1.40545 0.4278,-0.70129 0.55734,-1.30825 0.55734,-1.78392 l -0.0119,0.0547 c -0.026,0.0572 0.10883,-0.24227 -0.0197,-0.82156 -0.16084,-0.72466 -0.62647,-1.44703 -1.23461,-2.16249 0.60027,0.7062 1.02859,1.49307 1.10411,2.18423 0.0638,0.58423 -0.096,0.70217 -0.0906,0.69034 l -0.0119,0.0547 c 0,0.42885 -0.0944,0.99036 -0.47618,1.67693 -0.28146,0.50611 -0.66597,0.98402 -1.09126,1.41755 -1.09981,1.12111 -1.60756,1.34674 -1.60756,1.34674 z"
       id="path3784"
       inkscape:connector-curvature="0"
       inkscape:path-effect="#path-effect3786"
       inkscape:original-d="m 143.44196,110.30878 c 0,0 3.30729,-1.98437 3.30729,-4.44122 0,0 0.47248,-1.03943 -1.13392,-2.92931"
       transform="rotate(13,140.56666,115.41468)" />
    <path
       style="display:inline;fill:#000000;fill-rule:nonzero;stroke:none;stroke-width:0.26458332px;stroke-linecap:butt;stroke-linejoin:miter;stroke-opacity:1"
       d="m 135.88244,111.72619 h 0 c 0,0 -0.61504,0.0634 -2.00983,-0.46405 -0.52926,-0.20014 -1.002,-0.46494 -1.34526,-0.80873 -0.19325,-0.19354 -0.33028,-0.39686 -0.42188,-0.60561 -0.12032,-0.2742 -0.15398,-0.53906 -0.15398,-0.76744 0,0.003 -0.0664,-0.48149 0.0975,-1.34356 0.0722,-0.37991 0.18481,-0.75427 0.35106,-1.07543 0.22611,-0.43678 0.49838,-0.67199 0.74202,-0.79381 -0.24352,0.12176 -0.52785,0.33759 -0.7876,0.76829 -0.19085,0.31648 -0.3315,0.68824 -0.43442,1.07136 -0.22126,0.82365 -0.23318,1.55226 -0.23318,1.37315 0,0.25779 0.0457,0.5614 0.19521,0.87071 0.11358,0.23499 0.27826,0.45514 0.49869,0.65603 0.38788,0.35348 0.90173,0.60471 1.44822,0.77995 1.44588,0.46364 2.05341,0.33914 2.05341,0.33914 z"
       id="path3788"
       inkscape:connector-curvature="0"
       inkscape:path-effect="#path-effect3790"
       inkscape:original-d="m 135.88244,111.72619 c 0,0 -4.06324,-0.18898 -4.06324,-2.64583 0,0 0,-2.55134 1.32291,-3.2128"
       transform="rotate(13,140.56666,115.41468)" />
    <path
       style="display:inline;fill:#000000;stroke:#000000;stroke-width:0.26458332px;stroke-linecap:butt;stroke-linejoin:miter;stroke-opacity:1"
       d="m 143.30238,108.89072 c 0.79509,-0.7135 1.7743,-1.06931 2.21164,-0.96834 0.43735,0.10097 -0.0833,0.78085 -0.73138,1.06764 -0.64808,0.28678 -1.48026,-0.0993 -1.48026,-0.0993 z"
       id="path3816"
       inkscape:connector-curvature="0" />
    <path
       style="display:inline;fill:#000000;stroke:#000000;stroke-width:0.26458332px;stroke-linecap:butt;stroke-linejoin:miter;stroke-opacity:1"
       d="m 137.28745,109.00525 c -1.94578,-1.75845 -1.44291,-1.8363 -2.3725,-1.90545 -0.92959,-0.0691 0.14333,0.9544 0.92416,1.35287 0.78082,0.39847 1.44834,0.55258 1.44834,0.55258 z"
       id="path3818"
       inkscape:connector-curvature="0" />
    <path
       style="fill:#b3b3b3;stroke:none;stroke-width:0.26458332px;stroke-linecap:butt;stroke-linejoin:miter;stroke-opacity:1"
       d="m 119.0356,89.347469 c 0,0 3.20156,-2.31572 3.89216,-2.786649 0.6906,-0.470929 3.44231,-1.678259 5.83255,-0.05965 2.39023,1.618604 5.32227,3.410786 4.60337,3.584244 -0.7189,0.173457 -2.12829,-0.442862 -3.59087,-0.198652 -1.46258,0.244213 -4.98629,1.224828 -8.19461,-7.71e-4 -3.20831,-1.225594 -2.5426,-0.538514 -2.5426,-0.538514 z"
       id="path3915"
       inkscape:connector-curvature="0" />
    <path
       style="fill:#b3b3b3;stroke:none;stroke-width:0.26458332px;stroke-linecap:butt;stroke-linejoin:miter;stroke-opacity:1"
       d="m 148.2159,90.653415 c 0,0 0.68021,-2.946309 4.1968,-3.686113 3.5166,-0.739804 5.84324,-0.736048 8.6229,2.13622 2.77966,2.87227 -4.49762,1.628582 -4.49762,1.628582 0,0 -6.40607,-1.866874 -8.32208,-0.07869 z"
       id="path3917"
       inkscape:connector-curvature="0" />
    <path
       style="display:inline;fill:#ffffff;stroke:none;stroke-width:0.26499999;stroke-linecap:butt;stroke-linejoin:miter;stroke-miterlimit:4;stroke-dasharray:none;stroke-opacity:1"
       d="m 128.49443,120.55345 c 0,0 1.20194,0.14034 1.84303,-0.26025 0.64108,-0.4006 4.09687,-2.00288 6.01,-1.97266 1.91311,0.0302 3.53069,0.74657 4.50734,0.0806 0.97666,-0.666 3.0601,-1.07647 3.97655,-0.59059 0.91645,0.48588 4.81768,2.00372 5.57884,2.86519 -0.39072,0.80127 -1.5627,1.42218 -1.66791,1.87791 -0.10521,0.45574 -5.41417,3.5503 -8.97998,3.54995 -3.56583,-3.3e-4 -8.2983,-2.67013 -9.29978,-4.27284 -1.00149,-1.60271 -1.96809,-1.27727 -1.96809,-1.27727 z"
       id="path3761"
       inkscape:connector-curvature="0" />
    <path
       style="display:inline;fill:none;stroke:#000000;stroke-width:0.16500001;stroke-linecap:butt;stroke-linejoin:miter;stroke-miterlimit:4;stroke-dasharray:none;stroke-opacity:1"
       d="m 128.49443,120.55345 c 0,0 8.77433,-0.1344 9.61567,0.23128 0.84133,0.36568 3.31038,0.21566 3.31038,0.21566 l 3.09758,-0.34777 5.89213,0.0231"
       id="path3820"
       inkscape:connector-curvature="0" />
    <path
       style="display:inline;opacity:1;fill:#ffffff;stroke:none;stroke-width:0.065;stroke-linecap:butt;stroke-linejoin:miter;stroke-miterlimit:4;stroke-dasharray:none;stroke-opacity:1"
       d="m 121.449,89.395504 c 0,0 1.13704,-3.034799 2.97147,-3.314391 1.83442,-0.279594 2.92869,-0.293655 4.32921,0.466089 1.40052,0.759745 0.3487,1.220015 2.13172,1.583167 -1.67867,0.970163 -2.74825,2.032457 -4.07094,2.090765 -1.32268,0.05831 -4.50983,-0.313829 -5.36146,-0.82563 z"
       id="path3839"
       inkscape:connector-curvature="0" />
    <path
       style="display:inline;fill:none;stroke:none;stroke-width:0.26458332px;stroke-linecap:butt;stroke-linejoin:miter;stroke-opacity:1"
       d="m 126.41946,86.979024 c 0.45853,0.639249 0.62142,0.773834 0.33807,1.266051 -0.28335,0.492214 -0.66761,0.791422 -0.89424,0.617877 -0.22663,-0.173546 -1.25346,-1.816816 -0.67266,-2.022155 0.5808,-0.205341 1.22883,0.138227 1.22883,0.138227 z"
       id="path3859"
       inkscape:connector-curvature="0" />
    <path
       style="display:inline;fill:#cccccc;stroke:#000000;stroke-width:0.065;stroke-linecap:butt;stroke-linejoin:miter;stroke-miterlimit:4;stroke-dasharray:none;stroke-opacity:1"
       d="m 123.3774,87.658671 c 0,0 -0.52422,1.115464 0.69395,1.614903 1.21817,0.49944 3.17472,0.635968 3.5643,0.313741 0.38957,-0.322224 1.02531,-0.975533 0.87668,-2.222092 -0.14861,-1.246556 -4.14486,-2.629815 -5.13493,0.293448 z"
       id="path3845"
       inkscape:connector-curvature="0" />
    <path
       style="display:inline;fill:none;stroke:none;stroke-width:0.26499999;stroke-linecap:butt;stroke-linejoin:miter;stroke-miterlimit:4;stroke-dasharray:none;stroke-dashoffset:0;stroke-opacity:1"
       d="m 125.19063,86.840797 c 1.00921,0.669403 1.20043,0.786284 0.76127,1.218282 -0.43917,0.432 -1.29265,0.768344 -1.5423,0.589486 -0.24964,-0.178859 -0.54873,-1.823828 0.78103,-1.807768 z"
       id="path3847"
       inkscape:connector-curvature="0" />
    <path
       style="display:inline;fill:#ffffff;stroke:none;stroke-width:0.06996529;stroke-linecap:butt;stroke-linejoin:miter;stroke-miterlimit:4;stroke-dasharray:none;stroke-opacity:1"
       d="m 149.9129,89.393837 c 0,0 1.64781,-3.77696 6.79476,-2.757238 5.14695,1.019725 2.13415,3.357936 1.32369,3.507915 -0.81046,0.149972 -6.59016,-0.229301 -8.11845,-0.750677 z"
       id="path3851"
       inkscape:connector-curvature="0" />
    <path
       style="display:inline;fill:#cccccc;stroke:#000000;stroke-width:0.063;stroke-linecap:butt;stroke-linejoin:miter;stroke-miterlimit:4;stroke-dasharray:none;stroke-opacity:1"
       d="m 157.21503,88.009519 c 0,0 -0.2827,1.854584 -0.82722,2.112841 -0.54452,0.258257 -3.37637,0.132433 -3.75257,-0.338389 -0.3762,-0.470822 -0.97871,-2.481778 -0.50127,-2.65953 0.47745,-0.177748 4.76133,-1.300573 5.08106,0.885078 z"
       id="path3853"
       inkscape:connector-curvature="0" />
    <path
       style="display:inline;fill:none;stroke:none;stroke-width:0.26458332px;stroke-linecap:butt;stroke-linejoin:miter;stroke-opacity:1"
       d="m 155.12883,87.594369 c 0.50282,0.552493 0.67982,1.150989 0.15038,1.343941 -0.52945,0.192953 -0.78975,0.375307 -1.0748,0.139783 -0.28506,-0.235524 -0.69929,-1.27671 0.10106,-1.382876 0.80034,-0.106162 0.82336,-0.100848 0.82336,-0.100848 z"
       id="path3855"
       inkscape:connector-curvature="0" />
    <path
       style="display:inline;fill:none;stroke:none;stroke-width:0.26458332px;stroke-linecap:butt;stroke-linejoin:miter;stroke-opacity:1"
       d="m 153.18982,89.062061 c 0.36654,-0.01236 1.0943,-0.329239 1.15807,-0.605457 0.0638,-0.276216 -0.0176,-0.973862 -0.20176,-1.016376 -0.18414,-0.04251 -0.78969,-0.255049 -0.93314,0.05126 -0.14349,0.306303 -0.41089,1.044647 -0.117,1.451927 0.29389,0.407277 0.0938,0.118647 0.0938,0.118647 z"
       id="path3857"
       inkscape:connector-curvature="0" />
    <path
       style="display:inline;fill:none;stroke:none;stroke-width:0.01670435"
       d="m 125.90886,88.705003 c -0.0334,-0.03576 -0.0927,-0.110181 -0.13175,-0.165365 l -0.0709,-0.100341 0.12635,-0.09732 c 0.38235,-0.294521 0.52269,-0.518316 0.46485,-0.741266 -0.0379,-0.146174 -0.23927,-0.345595 -0.58652,-0.580899 -0.12805,-0.08677 -0.14065,-0.09946 -0.10432,-0.105072 0.0673,-0.0104 0.47286,0.07451 0.60072,0.125736 0.11476,0.046 0.11784,0.04879 0.24083,0.219218 0.17338,0.240273 0.27443,0.411155 0.29776,0.503535 0.0285,0.11271 -0.023,0.272614 -0.15481,0.480735 -0.1205,0.190321 -0.18984,0.275303 -0.31661,0.388097 -0.0884,0.07869 -0.23853,0.153248 -0.28628,0.142223 -0.0101,-0.0023 -0.0458,-0.03353 -0.0793,-0.06928 z"
       id="path3877"
       inkscape:connector-curvature="0" />
    <path
       style="display:inline;fill:none;stroke-width:0.01670435"
       d="m 125.48083,88.036576 c -0.20142,-0.381285 -0.33004,-0.766692 -0.31101,-0.931919 0.005,-0.04256 0.0125,-0.07647 0.0176,-0.07531 0.0266,0.0061 0.33242,0.208514 0.48843,0.323231 0.22273,0.163794 0.33999,0.280101 0.3411,0.338323 7.3e-4,0.02352 -0.0145,0.06746 -0.0329,0.09789 -0.0391,0.06424 -0.3077,0.320781 -0.37927,0.362117 l -0.0488,0.02817 z"
       id="path3885"
       inkscape:connector-curvature="0" />
    <path
       style="display:inline;fill:none;stroke:none;stroke-width:0.01670435"
       d="m 124.45694,88.474585 c -0.11171,-0.195741 -0.15372,-0.606003 -0.0902,-0.881042 0.0629,-0.272301 0.19357,-0.4397 0.42316,-0.542196 l 0.0978,-0.04365 -0.007,0.08756 c -0.0205,0.247053 0.11452,0.65817 0.37605,1.144853 l 0.0546,0.101655 -0.15176,0.06617 c -0.2471,0.10772 -0.41651,0.148189 -0.60896,0.145457 -0.0415,-5.59e-4 -0.0556,-0.01256 -0.0934,-0.0788 z"
       id="path3881"
       inkscape:connector-curvature="0" />
    <circle
       style="display:inline;opacity:1;fill:#000000;stroke:none;stroke-width:0.065;stroke-miterlimit:4;stroke-dasharray:none;stroke-dashoffset:0"
       id="path4761"
       cx="142.29155"
       cy="57.335823"
       r="1.1209972"
       transform="rotate(13)" />
    <circle
       style="display:inline;opacity:1;fill:#000000;stroke:none;stroke-width:0.065;stroke-miterlimit:4;stroke-dasharray:none;stroke-dashoffset:0"
       id="path4761-8"
       cx="170.18414"
       cy="51.304039"
       r="1.1209972"
       transform="rotate(13)" />
    <ellipse
       style="display:inline;opacity:1;fill:#ffffff;stroke:none;stroke-width:0.065;stroke-miterlimit:4;stroke-dasharray:none;stroke-dashoffset:0"
       id="path4778"
       cx="169.47536"
       cy="51.368164"
       rx="0.62602305"
       ry="0.4488467"
       transform="rotate(13)" />
    <ellipse
       style="display:inline;opacity:1;fill:#ffffff;stroke:none;stroke-width:0.065;stroke-miterlimit:4;stroke-dasharray:none;stroke-dashoffset:0"
       id="path4778-3"
       cx="141.77678"
       cy="57.067513"
       rx="0.62602305"
       ry="0.44884673"
       transform="rotate(13)" />
    <path
       style="fill:#000000;fill-rule:nonzero;stroke:none;stroke-width:0.26458332px;stroke-linecap:butt;stroke-linejoin:miter;stroke-opacity:1"
       d="m 129.09118,91.532786 0,0 c 0,0 -0.16238,-0.33979 -1.12502,-1.198407 -0.68518,-0.611141 -1.78069,-1.424 -3.23032,-1.929497 -1.4841,-0.517516 -3.19346,-0.66216 -5.08748,-0.159865 -2.57384,0.682583 -4.84079,2.387439 -6.61908,4.128687 0,0 0.0926,0.09452 0.0926,0.09452 0,0 0.0926,0.09452 0.0926,0.09452 1.76423,-1.727468 3.97659,-3.413257 6.48965,-4.112818 1.84527,-0.513668 3.51922,-0.401736 4.98941,0.08026 1.43819,0.471506 2.54018,1.251525 3.23844,1.843598 0.97908,0.830188 1.1593,1.158993 1.1593,1.158993 z"
       id="path3902"
       inkscape:connector-curvature="0"
       inkscape:path-effect="#path-effect3904"
       inkscape:original-d="m 129.09118,91.532786 c 0,0 -6.34765,-8.485807 -15.96935,0.935442"
       transform="rotate(13,140.56666,115.41468)" />
    <path
       style="fill:#000000;fill-rule:nonzero;stroke:none;stroke-width:0.26458332px;stroke-linecap:butt;stroke-linejoin:miter;stroke-opacity:1"
       d="m 142.78874,85.385586 c 0,0 0.13384,-0.153981 0.73489,-0.620063 0.56682,-0.439545 1.59845,-1.164039 2.93233,-1.707696 1.17578,-0.479223 2.46909,-0.77072 3.82816,-0.723225 1.84723,0.06455 3.36024,0.738279 4.5268,1.491681 0,0 0.0718,-0.11113 0.0718,-0.11113 0,0 0.0718,-0.11113 0.0718,-0.11113 -1.19508,-0.771821 -2.76639,-1.44813 -4.66477,-1.481695 -1.39432,-0.02465 -2.70802,0.302148 -3.88507,0.813574 -1.33707,0.580954 -2.35319,1.3374 -2.90687,1.797384 -0.58707,0.487718 -0.70901,0.6523 -0.70901,0.6523 z"
       id="path3906"
       inkscape:connector-curvature="0"
       inkscape:path-effect="#path-effect3908"
       inkscape:original-d="m 142.78874,85.385586 c 0,0 5.67948,-5.813113 12.09395,-1.670433"
       transform="rotate(13,140.56666,115.41468)" />
    <path
       style="fill:#000000;fill-rule:nonzero;stroke:none;stroke-width:0.26458332px;stroke-linecap:butt;stroke-linejoin:miter;stroke-opacity:1"
       d="m 140.22916,95.473217 c 0,0 0,0.132292 0,0.132292 l 0.12873,-0.162781 c 0.15981,0.674829 -0.25287,-1.02745 -0.41268,-1.702279 -0.30245,-1.284294 -0.80811,-3.492938 -1.31664,-5.957809 -0.44538,-2.15879 -0.84503,-4.282612 -1.12423,-6.106386 -0.15805,-1.032459 -0.26642,-1.896152 -0.33166,-2.608506 -0.0858,-0.936772 -0.0898,-1.534078 -0.0618,-1.926375 -0.0281,0.39321 -0.0308,0.988442 0.0434,1.927948 0.0564,0.714277 0.15345,1.578655 0.29842,2.614504 0.25639,1.832022 0.62846,3.95538 1.04618,6.124686 0.47091,2.445565 0.9556,4.71761 1.22861,5.981101 0.28354,1.31223 0.37292,1.713834 0.37298,1.714094 l 0.12873,-0.162781 c 0,0 0,0.132292 0,0.132292 z"
       id="path3928"
       inkscape:connector-curvature="0"
       inkscape:path-effect="#path-effect3930"
       inkscape:original-d="m 140.22916,95.473217 c 0,0 -3.40178,-14.363094 -3.1183,-18.331844"
       transform="rotate(13,140.56666,115.41468)" />
    <path
       style="fill:#000000;fill-rule:nonzero;stroke:none;stroke-width:0.26458332px;stroke-linecap:butt;stroke-linejoin:miter;stroke-opacity:1"
       d="m 135.78795,100.19792 c 0,0 0,0.13229 0,0.13229 l 0.13228,-0.13037 c 0,-2.2e-4 -0.001,-0.356813 -0.006,-1.579158 -0.005,-1.167002 -0.0157,-3.327991 -0.0602,-5.74682 -0.0397,-2.154873 -0.10246,-4.347153 -0.19951,-6.390478 -0.13236,-2.786915 -0.29313,-4.557222 -0.4336,-5.751237 0.13804,1.173359 0.28226,2.987133 0.38141,5.753412 0.073,2.037734 0.10901,4.241462 0.11941,6.38984 0.0119,2.458503 -0.011,4.537542 -0.0308,5.743887 -0.0103,0.629047 -0.0457,2.205764 -0.0354,1.576714 l 0.13228,-0.13037 c 0,0 0,0.13229 0,0.13229 z"
       id="path3936"
       inkscape:connector-curvature="0"
       inkscape:path-effect="#path-effect3938"
       inkscape:original-d="m 135.78795,100.19792 c 0,0 0.18898,-13.040179 -0.56697,-19.465773"
       transform="rotate(13,140.56666,115.41468)" />
    <path
       style="display:inline;fill:#ffffff;stroke:#000000;stroke-width:0.26458332px;stroke-linecap:butt;stroke-linejoin:miter;stroke-opacity:1"
       d="m 106.89379,112.53485 c 0,0 3.98899,3.19996 4.27959,0.89104 -0.51144,-2.93049 -1.5397,-8.13809 -1.72191,-9.97428 -0.1822,-1.83619 -0.80373,-9.779907 -1.08477,-10.963367 -0.53966,0.0418 -2.47129,-1.567903 -3.45224,-1.624658 -0.98094,-0.05675 -1.90715,1.644761 -2.00642,2.809842 -0.0993,1.165081 0.47763,4.862272 0.67942,5.563466 0.1894,0.649852 0.55401,2.115987 0.3502,4.153997 -0.20382,2.03801 0.5026,2.75873 1.00532,4.25676 0.50273,1.49802 1.1771,4.24791 1.95081,4.88719 z"
       id="path3749"
       inkscape:connector-curvature="0" />
    <path
       style="display:inline;fill:#ffffff;stroke:#000000;stroke-width:0.26458332px;stroke-linecap:butt;stroke-linejoin:miter;stroke-opacity:1"
       d="m 167.91898,91.767666 c 0,0 0.7061,0.50589 1.3647,0.177916 0.65861,-0.327974 2.68682,0.688879 2.98963,2.644597 0.30281,1.955721 -0.33822,1.910586 -0.37589,2.964805 -0.0377,1.054217 -0.87406,1.409718 -1.17209,1.958084 -0.29804,0.548372 -0.7289,2.266132 -0.32333,3.182662 0.40558,0.91654 0.005,3.84127 -0.51125,4.4422 -0.5159,0.60094 -1.05945,2.36126 -1.18725,3.36038 -0.12781,0.99912 -1.48529,3.90874 -2.92267,4.19407 -0.16002,-2.57421 0.56665,-7.65243 0.7946,-8.49128 0.22794,-0.83885 1.75603,-7.309272 1.50829,-8.909403 -0.24775,-1.600137 -0.30251,-5.075815 -0.16474,-5.524031 z"
       id="path3752"
       inkscape:connector-curvature="0" />
    <path
       style="display:inline;fill:#999999;stroke:none;stroke-width:0.26458332px;stroke-linecap:butt;stroke-linejoin:miter;stroke-opacity:1"
       d="m 148.63333,82.926425 c 0,0 6.99159,-1.917476 9.65088,-1.406391 2.65929,0.511084 5.97212,1.310196 6.54291,2.847762 0.57079,1.537562 1.08407,2.136089 1.29433,3.007531 0.546,-1.176871 -0.12468,-5.549068 -0.12468,-5.549068 0,0 -2.65905,-3.185451 -5.67388,-4.087205 -3.01484,-0.901755 -10.23433,1.40884 -12.14247,1.654061 -1.90814,0.245221 -1.91337,2.644137 -1.42762,3.06487 0.48575,0.42073 1.88053,0.468441 1.88053,0.46844 z"
       id="path3767"
       inkscape:connector-curvature="0" />
    <path
       style="fill:#999999;stroke:none;stroke-width:0.26458332px;stroke-linecap:butt;stroke-linejoin:miter;stroke-opacity:1"
       d="m 135.83624,82.315997 c 0,0 -8.30081,-0.170762 -9.84121,-1.059777 -1.54038,-0.889015 -11.58724,0.62218 -11.55206,3.200263 -0.3505,-1.002227 -0.0954,-2.107091 0.93523,-3.420822 1.03064,-1.31373 5.79397,-4.093216 7.40881,-4.156807 1.61485,-0.06359 6.83466,0.850558 8.58761,0.818851 1.75296,-0.03171 4.01231,0.0535 5.18781,2.312965 1.17551,2.259471 -0.72619,2.305327 -0.72619,2.305327 z"
       id="path3764"
       inkscape:connector-curvature="0" />
  </g>
</svg>
