<?xml version="1.0" encoding="UTF-8" standalone="no"?>
<svg
   xmlns:dc="http://purl.org/dc/elements/1.1/"
   xmlns:cc="http://creativecommons.org/ns#"
   xmlns:rdf="http://www.w3.org/1999/02/22-rdf-syntax-ns#"
   xmlns:svg="http://www.w3.org/2000/svg"
   xmlns="http://www.w3.org/2000/svg"
   xmlns:sodipodi="http://sodipodi.sourceforge.net/DTD/sodipodi-0.dtd"
   xmlns:inkscape="http://www.inkscape.org/namespaces/inkscape"
   width="116.91381mm"
   height="99.296104mm"
   viewBox="0 0 116.91381 99.296104"
   version="1.1"
   id="svg8"
   inkscape:version="1.0.2 (e86c870879, 2021-01-15, custom)"
   sodipodi:docname="front_top.svg">
  <defs
     id="defs2" />
  <sodipodi:namedview
     id="base"
     pagecolor="#ffffff"
     bordercolor="#666666"
     borderopacity="1.0"
     inkscape:pageopacity="0.0"
     inkscape:pageshadow="2"
     inkscape:zoom="1.4"
     inkscape:cx="168.10137"
     inkscape:cy="141.59452"
     inkscape:document-units="mm"
     inkscape:current-layer="layer4"
     inkscape:document-rotation="0"
     showgrid="true"
     inkscape:window-width="1920"
     inkscape:window-height="1002"
     inkscape:window-x="-8"
     inkscape:window-y="-8"
     inkscape:window-maximized="1">
    <inkscape:grid
       type="axonomgrid"
       id="grid10"
       visible="true"
       originx="-47.631201"
       originy="-85.625078" />
  </sodipodi:namedview>
  <metadata
     id="metadata5">
    <rdf:RDF>
      <cc:Work
         rdf:about="">
        <dc:format>image/svg+xml</dc:format>
        <dc:type
           rdf:resource="http://purl.org/dc/dcmitype/StillImage" />
        <dc:title />
      </cc:Work>
    </rdf:RDF>
  </metadata>
  <g
     inkscape:groupmode="layer"
     id="layer4"
     inkscape:label="haut 2"
     style="display:inline">
    <path
       style="fill:#ffb8ff;stroke:#000000;stroke-width:1;stroke-linecap:butt;stroke-linejoin:miter;stroke-miterlimit:4;stroke-dasharray:none;stroke-opacity:1;fill-opacity:1"
       d="m 21.985691,37.336296 29.176983,16.84534 c 2.9177,1.684534 2.9177,1.684534 5.8354,0 l 15.766845,-9.102992 7.77564,2.296278 1.732051,-1 -3.130594,-4.978097 15.786138,-9.114131 c 2.917689,-1.684534 2.917689,-1.684534 0,-3.369068 L 65.751169,12.068286 c -2.9177,-1.684533 -2.9177,-1.684533 -5.835401,0 L 21.985691,33.967228 c -2.917699,1.684533 -2.917699,1.684533 0,3.369068 z"
       id="path12-1"
       sodipodi:nodetypes="ccccccccccccc" />
    <path
       style="display:inline;fill:#ffb8ff;stroke:#000000;stroke-width:1;stroke-linecap:butt;stroke-linejoin:miter;stroke-miterlimit:4;stroke-dasharray:none;stroke-opacity:1;fill-opacity:1"
       d="m 25.981016,36.874956 25.980722,14.999978 c 2.598074,1.499998 2.598074,1.499998 5.196148,0 L 90.932827,32.374963 c 2.598064,-1.499998 2.598064,-1.499998 0,-2.999996 L 64.952103,14.374989 c -2.598074,-1.499997 -2.598074,-1.499997 -5.196149,0 L 25.981016,33.874961 c -2.598073,1.499996 -2.598073,1.499996 0,2.999995 z"
       id="path12-1-7"
       sodipodi:nodetypes="ccccccccc" />
  </g>
</svg>
